<svg width="85" height="50" viewBox="0 0 85 50" fill="none" xmlns="http://www.w3.org/2000/svg">
    <path d="M69.376 12.6681C68.7689 13.2051 68.1763 13.7467 67.5645 14.2604C67.1357 14.6199 66.678 14.9514 66.2251 15.2876C65.9168 15.5118 65.6855 15.4557 65.4832 15.1242C65.3338 14.8814 65.1893 14.6573 65.0448 14.3958C64.9932 14.3367 64.9561 14.267 64.9362 14.1921C64.9163 14.1171 64.9142 14.0387 64.9299 13.9628C64.9457 13.887 64.9789 13.8155 65.0272 13.7538C65.0754 13.6921 65.1375 13.6418 65.2086 13.6066C66.2196 12.882 67.1686 12.0794 68.0463 11.2066C68.0809 11.1726 68.1198 11.1428 68.1619 11.1179C68.1089 11.0291 68.0752 10.9638 68.0366 10.9031C67.2836 9.67906 66.6897 8.36946 66.2685 7.00411C66.1143 6.53717 66.2685 6.27101 66.7503 6.27101C67.0169 6.27101 67.2818 6.27101 67.5452 6.27101C67.9354 6.27101 67.9981 6.33638 68.1571 6.70527C68.5377 7.57844 68.9375 8.43762 69.3326 9.30146C69.371 9.37727 69.4144 9.45058 69.4627 9.52092C70.4096 8.38214 71.0576 7.03789 71.3513 5.60329H64.9918C64.4859 5.60329 64.3655 5.47721 64.3655 4.94957C64.3655 4.63205 64.3655 4.31453 64.3655 4.01569C64.3655 3.71685 64.5582 3.45536 64.8906 3.45536H68.2197V2.91371C68.2197 2.54016 68.3787 2.37206 68.7352 2.36739C69.0917 2.36272 69.3856 2.36739 69.6988 2.36739C70.0119 2.36739 70.1805 2.54483 70.1805 2.89036C70.1805 3.0678 70.1805 3.24524 70.1805 3.45536H73.4663C73.8854 3.45536 74.0347 3.61879 74.0396 4.06238V4.99626C74.0396 5.43052 73.8902 5.57994 73.4759 5.58461H73.2543C72.97 7.76989 71.9053 9.53026 70.5949 11.1879C71.0942 11.7398 71.6566 12.2348 72.2714 12.6634C72.3823 12.7428 72.4979 12.8175 72.6039 12.8969C72.7141 12.9596 72.7957 13.0605 72.8324 13.1791C72.869 13.2978 72.8579 13.4255 72.8014 13.5366C72.6858 13.8479 72.5653 14.1592 72.4401 14.4705C72.2907 14.8394 71.9872 14.9374 71.6933 14.6806C70.9273 14.0362 70.1709 13.3825 69.4097 12.7288L69.376 12.6681Z" fill="#355CE0"/>
    <path d="M77.6673 36.7155C77.6673 36.7856 77.6192 36.8369 77.518 36.865C77.1477 36.9135 76.7737 36.9307 76.4003 36.9163C76.0339 36.9348 75.6666 36.9255 75.3018 36.8883C75.2344 36.8759 75.1728 36.8429 75.126 36.7942C75.0792 36.7455 75.0497 36.6836 75.0417 36.6175C74.9068 36.0291 74.8008 35.7178 74.7237 35.6836C74.1904 35.6369 73.6545 35.6229 73.1194 35.6416C72.7572 35.6199 72.3936 35.6371 72.0354 35.6929C71.9129 35.8932 71.8342 36.1157 71.8041 36.3467C71.7318 36.6829 71.6355 36.865 71.5295 36.893C71.0753 36.9424 70.618 36.9595 70.1613 36.9443C69.5542 36.9443 69.2459 36.8836 69.2459 36.7669C69.2459 36.6502 69.6987 35.3661 70.5997 32.8773C71.5632 30.1846 72.0948 28.7044 72.1944 28.4367C72.2425 28.2826 72.3003 28.2032 72.363 28.2032C72.4256 28.2032 72.6376 28.2032 72.8448 28.2359C73.0519 28.2686 73.2398 28.2639 73.3265 28.2639C73.4132 28.2639 73.5915 28.2639 73.8083 28.2639C74.0251 28.2639 74.1745 28.2639 74.2901 28.2639C74.4057 28.2639 74.4346 28.3293 74.4973 28.4647C74.6964 28.8881 75.2681 30.3496 76.2124 32.8493C77.1567 35.349 77.6416 36.6377 77.6673 36.7155ZM73.4181 31.1683C73.2566 31.5487 73.1151 31.9367 72.9941 32.331C72.8518 32.6915 72.7421 33.0633 72.6665 33.4423C72.6665 33.517 72.7869 33.559 73.0278 33.5637C73.1531 33.5637 73.3554 33.5637 73.6397 33.5637C73.9239 33.5637 74.0492 33.531 74.0781 33.4656C74.0816 33.4377 74.0816 33.4095 74.0781 33.3816C74.0223 33.0052 73.9304 32.6347 73.8035 32.2749C73.7012 31.898 73.5724 31.5282 73.4181 31.1683Z" fill="#355CE0"/>
    <path d="M76.2268 32.0555L78.154 25.6631L79.4933 26.8724L78.9489 28.6748C81.035 26.5783 79.8498 22.2264 78.9489 18.1033C77.889 13.2891 76.8339 10.5809 73.9721 12.0657L73.4518 9.68435C77.094 7.81659 81.1602 11.2439 82.4948 17.3702C83.6221 22.5065 82.4948 27.909 79.9606 30.6453L81.1651 30.9908L80.982 33.447L76.2268 32.0555Z" fill="#355CE0"/>
    <path d="M64.9195 11.7062L63.3345 18.1266L61.9662 16.7258L62.4143 14.9141C60.4872 16.8752 61.8699 21.2832 62.9298 25.6537C64.1679 30.7387 65.2664 33.8579 67.9692 32.6111L68.581 35.1233C65.1411 36.7155 61.0557 34.6143 59.4803 28.1425C58.1602 22.7213 58.9985 15.3717 61.3496 12.7988L60.1692 14.1997L60.2222 9.80575L64.9195 11.7062Z" fill="#355CE0"/>
    <path d="M0.481777 45.9937H1.76331C2.23165 45.9468 2.70178 46.0644 3.08819 46.3252C3.22577 46.4829 3.32911 46.666 3.39202 46.8634C3.45493 47.0607 3.47613 47.2684 3.45434 47.4739C3.46805 47.7286 3.44042 47.9839 3.37244 48.2303C3.31465 48.4107 3.19585 48.567 3.0352 48.6739C2.87477 48.7798 2.69214 48.8499 2.50043 48.8793C2.23733 48.9174 1.97147 48.9345 1.70549 48.9307C1.031 48.9307 0.467324 48.9307 0.0289066 48.87H0V43.7337C0.592586 43.7103 1.12736 43.6963 1.60914 43.6963C2.09091 43.6963 2.6016 43.6963 3.17491 43.7337L3.13637 44.1399H0.481777V45.9937ZM0.481777 46.3905V48.4965C0.891288 48.4965 1.31525 48.4965 1.74403 48.4965C2.07118 48.5316 2.40091 48.4575 2.67868 48.2863C2.77623 48.1687 2.84828 48.0333 2.8905 47.888C2.93272 47.7428 2.94425 47.5908 2.92439 47.4412C2.95854 47.1421 2.87416 46.8417 2.68832 46.6007C2.40797 46.4103 2.06417 46.3286 1.72476 46.3719L0.481777 46.3905Z" fill="#355CE0"/>
    <path d="M6.64371 45.989H7.93969C7.89855 45.3421 8.06699 44.6988 8.42147 44.1492C8.61099 43.9605 8.8419 43.8155 9.0971 43.7249C9.3523 43.6344 9.62524 43.6007 9.89571 43.6263C10.1913 43.5946 10.4905 43.6315 10.7686 43.7338C11.0466 43.836 11.2957 44.0008 11.4952 44.2146C11.8035 44.6068 11.977 45.2979 11.977 46.2925C11.977 47.2871 11.8228 47.9828 11.4952 48.375C11.2957 48.5888 11.0466 48.7536 10.7686 48.8559C10.4905 48.9582 10.1913 48.995 9.89571 48.9634C9.61572 48.9916 9.33281 48.9547 9.07053 48.8556C8.80824 48.7565 8.57416 48.5982 8.38775 48.3937C8.09547 48.0139 7.94612 47.3462 7.93969 46.3906H6.64371V48.87H6.16193V43.7337H6.64371V45.989ZM9.89571 48.5291C10.1201 48.5528 10.3469 48.5202 10.5545 48.4343C10.7621 48.3484 10.9433 48.2123 11.0809 48.0388C11.3499 47.4957 11.4663 46.8932 11.4181 46.2925C11.4659 45.6933 11.3495 45.0925 11.0809 44.5508C10.9402 44.3809 10.757 44.2488 10.5487 44.1671C10.3403 44.0853 10.1139 44.0567 9.89089 44.0839C9.67582 44.0589 9.45777 44.0889 9.25833 44.1708C9.0589 44.2527 8.88501 44.3837 8.7539 44.5508C8.49589 45.0954 8.38641 45.6951 8.43592 46.2925C8.38601 46.8914 8.49549 47.4927 8.7539 48.0388C8.88266 48.2109 9.05612 48.347 9.25666 48.4331C9.4572 48.5192 9.67768 48.5523 9.89571 48.5291Z" fill="#355CE0"/>
    <path d="M14.7328 48.87V43.7337C15.1567 43.6963 15.7493 43.6776 16.5105 43.6776C16.9684 43.6289 17.4287 43.7471 17.8017 44.0091C18.0864 44.3608 18.2163 44.8072 18.163 45.2512C18.2123 45.687 18.092 46.1249 17.8258 46.4793C17.4669 46.7365 17.022 46.8547 16.578 46.8108C16.1395 46.8108 15.6963 46.8108 15.2531 46.7501V48.87H14.7328ZM15.2386 46.3859H16.5057C16.8235 46.4136 17.1407 46.3272 17.397 46.1431C17.5935 45.88 17.6812 45.5551 17.6427 45.2325C17.6845 44.9024 17.5968 44.5691 17.397 44.2987C17.1419 44.1125 16.8232 44.0273 16.5057 44.0605C16.0721 44.0605 15.653 44.0605 15.2386 44.0605V46.3859Z" fill="#355CE0"/>
    <path d="M21.0537 44.2146C21.2515 44.0013 21.4988 43.8367 21.7753 43.7344C22.0518 43.6321 22.3494 43.595 22.6435 43.6263C22.9384 43.5946 23.2369 43.6315 23.5142 43.7338C23.7915 43.8361 24.0397 44.0009 24.2382 44.2146C24.5417 44.6068 24.6911 45.2979 24.6911 46.2925C24.6911 47.2871 24.5417 47.9828 24.2382 48.375C24.0397 48.5887 23.7915 48.7536 23.5142 48.8559C23.2369 48.9582 22.9384 48.995 22.6435 48.9634C22.3486 48.9954 22.05 48.9587 21.7727 48.8564C21.4953 48.7541 21.2472 48.589 21.0489 48.375C20.7453 47.9828 20.5671 47.2917 20.5671 46.2925C20.5671 45.2932 20.7502 44.6068 21.0537 44.2146ZM23.8335 44.5508C23.6936 44.3813 23.5112 44.2494 23.3037 44.1676C23.0962 44.0859 22.8706 44.057 22.6484 44.0839C22.4254 44.0567 22.1989 44.0853 21.9906 44.1671C21.7823 44.2488 21.599 44.3809 21.4584 44.5508C21.185 45.091 21.0684 45.693 21.1211 46.2925C21.068 46.8935 21.1846 47.4972 21.4584 48.0388C21.5959 48.2123 21.7772 48.3484 21.9848 48.4343C22.1923 48.5202 22.4192 48.5528 22.6435 48.5291C22.8679 48.5533 23.095 48.5208 23.3026 48.4349C23.5102 48.349 23.6915 48.2126 23.8287 48.0388C24.0981 47.4958 24.2129 46.8929 24.1611 46.2925C24.214 45.694 24.1009 45.0927 23.8335 44.5508Z" fill="#355CE0"/>
    <path d="M34.4664 43.715V48.8513H33.9557V44.1212H31.2577V48.87H30.7759V43.7337L34.4664 43.715Z" fill="#355CE0"/>
    <path d="M40.5705 48.4591L40.5946 48.8326C40.1128 48.8653 39.3516 48.8793 38.3206 48.8793C38.0715 48.8896 37.828 48.8059 37.6413 48.6459C37.5561 48.5665 37.4893 48.4706 37.4452 48.3643C37.4012 48.258 37.381 48.1439 37.3859 48.0295V44.5601C37.3809 44.445 37.4011 44.3302 37.4451 44.2232C37.4891 44.1161 37.556 44.0193 37.6413 43.9391C37.8288 43.7807 38.0722 43.6987 38.3206 43.7103C39.3516 43.7103 40.108 43.7103 40.5946 43.7523L40.5705 44.1259H38.4121C38.0604 44.1259 37.887 44.308 37.887 44.6722V45.9376H40.2622V46.3298H37.887V47.9221C37.887 48.2817 38.0604 48.4591 38.4121 48.4591H40.5705Z" fill="#355CE0"/>
    <path d="M43.2684 48.87V43.7337C43.6924 43.6963 44.285 43.6776 45.0462 43.6776C45.5041 43.6289 45.9644 43.7471 46.3374 44.0091C46.6221 44.3608 46.7519 44.8072 46.6987 45.2512C46.7488 45.695 46.6231 46.1406 46.347 46.4979C45.9898 46.7549 45.5465 46.8731 45.104 46.8295C44.6608 46.8295 44.2175 46.8295 43.7743 46.7688V48.8887L43.2684 48.87ZM43.7502 46.3859H45.0173C45.3351 46.4136 45.6523 46.3272 45.9086 46.1431C46.1068 45.8807 46.1962 45.5557 46.1591 45.2325C46.1996 44.9018 46.1101 44.5684 45.9086 44.2987C45.6535 44.1125 45.3348 44.0273 45.0173 44.0605C44.5837 44.0605 44.1645 44.0605 43.7502 44.0605V46.3859Z" fill="#355CE0"/>
    <path d="M52.4704 48.4591V48.8326C51.9886 48.8653 51.2274 48.8793 50.1964 48.8793C49.9473 48.8896 49.7038 48.8059 49.5171 48.6459C49.4319 48.5665 49.3651 48.4706 49.321 48.3643C49.277 48.258 49.2568 48.1439 49.2618 48.0295V44.5601C49.2567 44.445 49.2769 44.3302 49.3209 44.2232C49.3649 44.1161 49.4318 44.0193 49.5171 43.9391C49.7046 43.7807 49.948 43.6987 50.1964 43.7103C51.2274 43.7103 51.9886 43.7103 52.4704 43.7523V44.1259H50.312C49.9651 44.1259 49.7869 44.308 49.7869 44.6722V45.9376H52.162V46.3298H49.7869V47.9221C49.7869 48.2817 49.9651 48.4591 50.312 48.4591H52.4704Z" fill="#355CE0"/>
    <path d="M57.6591 46.1804V46.2271C57.8176 46.2271 57.9739 46.2625 58.1159 46.3305C58.2579 46.3985 58.3819 46.4974 58.4781 46.6194C58.6611 46.9143 58.7469 47.2565 58.7239 47.5999C58.7487 47.7927 58.7277 47.9884 58.6626 48.1721C58.5975 48.3558 58.4899 48.5226 58.3481 48.6599C57.9549 48.8862 57.4978 48.9859 57.0424 48.9447C56.2331 48.9447 55.5971 48.9447 55.1683 48.884V43.7477C55.5538 43.7103 56.103 43.6916 56.8112 43.6916C57.286 43.6498 57.7627 43.7474 58.1794 43.9718C58.3234 44.1087 58.4327 44.2761 58.4987 44.4608C58.5648 44.6455 58.5858 44.8425 58.56 45.0364C58.5823 45.3333 58.5063 45.6293 58.3432 45.8816C58.2581 45.9761 58.1529 46.0518 58.0348 46.1033C57.9168 46.1549 57.7886 46.1812 57.6591 46.1804ZM55.6646 46.0123H56.9172C57.2306 46.0355 57.5438 45.9637 57.8133 45.8069C57.9781 45.5822 58.0643 45.3122 58.0591 45.0365C58.0539 44.7608 57.9576 44.494 57.7844 44.2753C57.4804 44.1126 57.1328 44.0426 56.7871 44.0745C56.2186 44.0745 55.8235 44.0745 55.6549 44.0745L55.6646 46.0123ZM55.6646 46.3906V48.4965C56.0933 48.4965 56.5318 48.4965 56.9798 48.4965C57.3153 48.5278 57.6524 48.4559 57.9434 48.291C58.0441 48.1862 58.1196 48.0611 58.1646 47.9247C58.2096 47.7882 58.2229 47.6439 58.2035 47.5019C58.2234 47.3444 58.2093 47.1846 58.162 47.0326C58.1147 46.8807 58.0353 46.7399 57.9289 46.6194C57.6284 46.4325 57.2732 46.3456 56.9172 46.3719L55.6646 46.3906Z" fill="#355CE0"/>
    <path d="M61.7205 44.2146C62.1607 43.8378 62.7278 43.6298 63.3152 43.6298C63.9025 43.6298 64.4697 43.8378 64.9099 44.2146C65.2134 44.6068 65.3917 45.2979 65.3917 46.2925C65.3917 47.2871 65.2375 47.9828 64.9099 48.375C64.4697 48.7519 63.9025 48.9599 63.3152 48.9599C62.7278 48.9599 62.1607 48.7519 61.7205 48.375C61.417 47.9828 61.2676 47.2917 61.2676 46.2925C61.2676 45.2932 61.417 44.6068 61.7205 44.2146ZM64.5052 44.5508C64.351 44.3957 64.1662 44.2724 63.9617 44.1882C63.7573 44.1039 63.5374 44.0605 63.3152 44.0605C63.093 44.0605 62.8731 44.1039 62.6687 44.1882C62.4642 44.2724 62.2794 44.3957 62.1252 44.5508C61.8541 45.0917 61.7376 45.6931 61.788 46.2925C61.7372 46.8934 61.8537 47.4964 62.1252 48.0388C62.2794 48.1939 62.4642 48.3173 62.6687 48.4015C62.8731 48.4858 63.093 48.5292 63.3152 48.5292C63.5374 48.5292 63.7573 48.4858 63.9617 48.4015C64.1662 48.3173 64.351 48.1939 64.5052 48.0388C64.7725 47.4953 64.8856 46.8925 64.8328 46.2925C64.8852 45.694 64.7721 45.0929 64.5052 44.5508Z" fill="#355CE0"/>
    <path d="M72.2666 48.4684V50H71.9198L71.8571 48.87H67.8776L67.8246 50H67.4729V48.4684H67.9547C68.4928 47.2493 68.7714 45.9375 68.7737 44.6115C68.7702 44.4898 68.7923 44.3686 68.8387 44.2554C68.8851 44.1422 68.9548 44.0393 69.0435 43.9531C69.1392 43.8696 69.2511 43.8055 69.3728 43.7646C69.4944 43.7237 69.6233 43.7068 69.7517 43.715H71.6066V48.4684H72.2666ZM71.1152 48.4684V44.1212H69.8577C69.7026 44.108 69.5484 44.155 69.429 44.252C69.3266 44.3689 69.2733 44.5189 69.2796 44.6722C69.2523 45.3847 69.175 46.0945 69.0484 46.7968C68.9413 47.3785 68.7465 47.9417 68.4702 48.4684H71.1152Z" fill="#355CE0"/>
    <path d="M75.0272 44.2146C75.4674 43.8378 76.0345 43.6298 76.6219 43.6298C77.2092 43.6298 77.7764 43.8378 78.2166 44.2146C78.5201 44.6068 78.6694 45.2979 78.6694 46.2925C78.6694 47.2871 78.5201 47.9828 78.2166 48.375C77.7764 48.7519 77.2092 48.9599 76.6219 48.9599C76.0345 48.9599 75.4674 48.7519 75.0272 48.375C74.7237 47.9828 74.5695 47.2917 74.5695 46.2925C74.5695 45.2932 74.7237 44.6068 75.0272 44.2146ZM77.8071 44.5508C77.6533 44.3959 77.4689 44.2726 77.2648 44.1884C77.0608 44.1042 76.8413 44.0608 76.6195 44.0608C76.3977 44.0608 76.1782 44.1042 75.9741 44.1884C75.7701 44.2726 75.5856 44.3959 75.4319 44.5508C75.1585 45.091 75.0419 45.693 75.0947 46.2925C75.0415 46.8935 75.1581 47.4972 75.4319 48.0388C75.5856 48.1938 75.7701 48.317 75.9741 48.4012C76.1782 48.4854 76.3977 48.5288 76.6195 48.5288C76.8413 48.5288 77.0608 48.4854 77.2648 48.4012C77.4689 48.317 77.6533 48.1938 77.8071 48.0388C78.0765 47.4958 78.1912 46.8929 78.1395 46.2925C78.1908 45.6936 78.0761 45.0923 77.8071 44.5508Z" fill="#355CE0"/>
    <path d="M83.9353 46.1804V46.2271C84.0943 46.2278 84.251 46.2634 84.3937 46.3314C84.5365 46.3993 84.6614 46.4978 84.7591 46.6193C84.9382 46.9157 85.0221 47.2571 85 47.5999C85.0248 47.7927 85.0039 47.9884 84.9388 48.1721C84.8736 48.3558 84.766 48.5226 84.6242 48.6599C84.2313 48.8868 83.774 48.9866 83.3186 48.9447C82.514 48.9447 81.8733 48.9447 81.4445 48.884V43.7477C81.8299 43.7103 82.3791 43.6916 83.0874 43.6916C83.5622 43.6489 84.0392 43.7466 84.4556 43.9718C84.5996 44.1087 84.7089 44.2761 84.7749 44.4608C84.8409 44.6455 84.8619 44.8425 84.8362 45.0364C84.856 45.3325 84.782 45.6274 84.6242 45.8816C84.5381 45.9762 84.4321 46.0519 84.3132 46.1034C84.1944 46.155 84.0655 46.1812 83.9353 46.1804ZM81.9407 46.0123H83.1982C83.5133 46.0377 83.8287 45.9658 84.0991 45.8069C84.2639 45.5822 84.3501 45.3121 84.3449 45.0365C84.3397 44.7608 84.2434 44.494 84.0702 44.2753C83.7662 44.1126 83.4186 44.0426 83.0729 44.0745H81.9407V46.0123ZM81.9407 46.3905V48.4964C82.3695 48.4964 82.8127 48.4964 83.256 48.4964C83.5915 48.5278 83.9286 48.4559 84.2195 48.291C84.3235 48.1882 84.4015 48.0634 84.4474 47.9265C84.4934 47.7896 84.5061 47.6443 84.4845 47.5019C84.505 47.344 84.4906 47.1837 84.4425 47.0316C84.3943 46.8794 84.3134 46.7389 84.2051 46.6193C83.9063 46.4325 83.5527 46.3456 83.1982 46.3719L81.9407 46.3905Z" fill="#355CE0"/>
    <path d="M0.481781 28.4834L5.0683 26.9518C5.50372 28.7042 6.49029 30.282 7.89152 31.4671C9.25454 32.5256 10.9638 33.0755 12.7093 33.0174C13.5206 33.0567 14.3316 32.9344 15.0923 32.6582C15.853 32.3819 16.5472 31.9575 17.132 31.4111C17.6888 30.8327 18.1188 30.1509 18.3962 29.407C18.6736 28.663 18.7926 27.8723 18.746 27.0826C18.8001 25.7641 18.3173 24.4778 17.4018 23.5011C16.5121 22.5672 14.5288 21.4886 11.4519 20.2652C7.88991 18.8551 5.37985 17.3437 3.92167 15.7312C2.44269 14.0601 1.66244 11.913 1.7344 9.71236C1.69121 8.41891 1.92587 7.13087 2.42349 5.92996C2.92111 4.72905 3.67082 3.64149 4.62507 2.73627C6.57145 0.912091 9.07509 -1.79862e-07 12.136 -1.79862e-07C14.1112 -0.0219339 16.0591 0.449224 17.792 1.36814C19.6355 2.40495 21.2211 3.82215 22.4364 5.51924L18.8857 8.9139C17.9937 7.65722 16.8778 6.56462 15.5903 5.68734C14.5725 5.01035 13.3703 4.64145 12.136 4.62738C10.7817 4.56975 9.45708 5.02335 8.44075 5.89279C7.97515 6.31192 7.6081 6.82327 7.36453 7.3921C7.12095 7.96093 7.00657 8.57391 7.02914 9.18939C7.0045 10.1959 7.32659 11.1817 7.94451 11.991C8.74138 12.9224 9.74856 13.6637 10.8882 14.1576C12.0926 14.7366 13.5235 15.3577 15.1664 16.0254C16.1891 16.4061 17.188 16.8442 18.1582 17.3375C20.384 18.7321 21.9209 20.1423 22.7688 21.568C23.6167 22.9937 24.0391 24.8054 24.0359 27.0032C24.0359 30.1659 22.9936 32.7466 20.9091 34.7451C18.8247 36.7436 16.1267 37.7397 12.8153 37.7335C9.60344 37.7335 6.9103 36.9132 4.73588 35.2727C2.5218 33.5789 1.01154 31.1686 0.481781 28.4834Z" fill="#355CE0"/>
    <path d="M32.2646 10.4174H27.0181V36.977H32.2646V10.4174Z" fill="#355CE0"/>
    <path d="M32.9199 5.5706C31.5471 6.13882 30.4543 7.19963 29.8702 8.53101C29.8533 8.57608 29.8225 8.61502 29.782 8.64254C29.7415 8.67006 29.6932 8.68482 29.6438 8.68482C29.5943 8.68482 29.546 8.67006 29.5055 8.64254C29.465 8.61502 29.4342 8.57608 29.4173 8.53101C28.8321 7.19877 27.7374 6.13783 26.3629 5.5706C26.3164 5.55424 26.2762 5.5244 26.2478 5.48514C26.2194 5.44587 26.2042 5.39909 26.2042 5.35114C26.2042 5.30319 26.2194 5.25641 26.2478 5.21714C26.2762 5.17788 26.3164 5.14804 26.3629 5.13168C27.7383 4.56803 28.8336 3.50809 29.4173 2.17594C29.4342 2.13087 29.465 2.09193 29.5055 2.06441C29.546 2.03689 29.5943 2.02213 29.6438 2.02213C29.6932 2.02213 29.7415 2.03689 29.782 2.06441C29.8225 2.09193 29.8533 2.13087 29.8702 2.17594C30.4543 3.50732 31.5471 4.56813 32.9199 5.13635C32.9648 5.15356 33.0033 5.18347 33.0305 5.22219C33.0577 5.26091 33.0722 5.30665 33.0722 5.35347C33.0722 5.4003 33.0577 5.44604 33.0305 5.48476C33.0033 5.52348 32.9648 5.55339 32.9199 5.5706Z" fill="#355CE0"/>
    <path d="M51.7815 36.9817V19.8823C51.7815 17.7671 51.4394 16.2168 50.7553 15.2129C50.0711 14.209 49.0064 13.7187 47.5466 13.7187C45.6195 13.7187 44.0666 14.609 42.8878 16.3896C41.7091 18.1702 41.1213 20.5656 41.1245 23.5758V36.9817H35.878V9.53026H40.6283C40.5994 10.763 40.5319 11.9724 40.4308 13.1677C40.3296 14.3631 40.2092 15.5258 40.0646 16.6651C40.9286 14.2059 42.1282 12.3381 43.6635 11.0618C45.1821 9.78817 47.1334 9.10452 49.1413 9.1427C51.6819 9.1427 53.6347 9.97074 54.9997 11.6268C56.3648 13.2829 57.0473 15.6472 57.0473 18.7196V36.9817H51.7815Z" fill="#355CE0"/>
</svg>