<svg width="139" height="15" viewBox="0 0 139 15" fill="none" xmlns="http://www.w3.org/2000/svg">
    <g clip-path="url(#clip0_0_449)">
        <path d="M0 10.3228L1.77117 9.71393C1.94001 10.4102 2.32087 11.0373 2.86141 11.5089C3.38777 11.9296 4.04783 12.1483 4.72189 12.1251C5.0352 12.1408 5.34839 12.0922 5.64213 11.9823C5.93588 11.8725 6.20396 11.7038 6.42981 11.4866C6.64581 11.2571 6.8129 10.9863 6.92099 10.6906C7.02907 10.3948 7.07591 10.0802 7.05865 9.7659C7.07925 9.24215 6.89361 8.73115 6.54144 8.34219C6.19539 7.97095 5.42887 7.54217 4.24189 7.05584C2.86762 6.49527 1.89893 5.89448 1.33582 5.25347C0.763887 4.58959 0.462465 3.73576 0.491166 2.86082C0.474488 2.34664 0.565106 1.83461 0.75727 1.35722C0.949435 0.879826 1.23895 0.447494 1.60745 0.0876474C2.35909 -0.63751 3.32529 -1.00009 4.50608 -1.00009C5.2714 -1.01034 6.02638 -0.822988 6.69772 -0.456221C7.40983 -0.043644 8.02266 0.519625 8.49308 1.19395L7.12005 2.54341C6.77672 2.04352 6.34635 1.6091 5.84934 1.26077C5.45548 0.991907 4.99071 0.845303 4.51352 0.839411C3.99059 0.81689 3.47921 0.997157 3.08653 1.34244C2.90674 1.50906 2.76499 1.71233 2.67093 1.93845C2.57687 2.16458 2.5327 2.40825 2.54141 2.65292C2.53258 3.05324 2.65761 3.44509 2.89676 3.76665C3.20377 4.13686 3.5921 4.43156 4.03166 4.62793C4.49926 4.8581 5.05058 5.10559 5.68562 5.37041C6.08002 5.52159 6.46518 5.69576 6.83912 5.892C7.69866 6.44639 8.29215 7.00696 8.61959 7.57372C8.94704 8.14049 9.11076 8.86069 9.11076 9.73435C9.11076 10.9916 8.70766 12.0175 7.90145 12.8119C7.09524 13.6064 6.05337 14.0036 4.77585 14.0036C3.53553 14.0036 2.49552 13.6775 1.65583 13.0254C0.795832 12.3527 0.207909 11.3931 0 10.3228H0Z" fill="#355CE0"/>
        <path d="M11.9275 13.7013V3.14136H13.9546V13.7013H11.9275Z" fill="#355CE0"/>
        <path d="M23.1648 13.7012V6.9038C23.1648 6.06294 23.0327 5.44668 22.7704 5.04759C22.5081 4.64851 22.0932 4.45361 21.5295 4.45361C20.7853 4.45361 20.1856 4.80752 19.7304 5.51536C19.2752 6.22319 19.0482 7.17481 19.0494 8.3702V13.7012H17.0234V2.78859H18.8597C18.8466 3.27863 18.8206 3.75939 18.7815 4.23458C18.7425 4.70976 18.6959 5.17196 18.642 5.62487C18.9744 4.64727 19.4377 3.90479 20.0318 3.39743C20.6161 2.89253 21.3668 2.62084 22.1397 2.63453C23.122 2.63453 23.8761 2.96369 24.402 3.62203C24.9279 4.28036 25.1915 5.22022 25.1927 6.4416V13.7012H23.1648Z" fill="#355CE0"/>
        <path d="M31.8681 14.0001C30.4877 14.0001 29.39 13.4822 28.5751 12.4464C27.7602 11.4107 27.3515 10.0099 27.349 8.24399C27.349 6.48059 27.7565 5.08039 28.5714 4.04339C29.3863 3.00639 30.4839 2.48851 31.8644 2.48975C33.2511 2.48975 34.355 3.00949 35.1761 4.04896C35.9971 5.08844 36.4071 6.48678 36.4058 8.24399C36.4058 10.0037 35.9959 11.4026 35.1761 12.4409C34.3562 13.4791 33.2536 13.9988 31.8681 14.0001ZM31.8681 12.1958C32.6123 12.1958 33.2058 11.8395 33.6486 11.1267C34.0914 10.4139 34.3122 9.44743 34.3109 8.22728C34.3109 7.01951 34.0902 6.05552 33.6486 5.33531C33.207 4.6151 32.6198 4.25562 31.8867 4.25686C31.1425 4.25686 30.5546 4.61201 30.123 5.32232C29.6914 6.03263 29.4737 7.00095 29.47 8.22728C29.47 9.44124 29.6876 10.4065 30.123 11.123C30.5584 11.8395 31.1401 12.1971 31.8681 12.1958Z" fill="#355CE0"/>
        <path d="M43.5817 1.21071V13.7011H41.5203V1.21071H36.9417V-0.682617H48.1399V1.21071H43.5817Z" fill="#355CE0"/>
        <path d="M49.005 13.7012V2.78854H50.9585C50.9585 3.19876 50.9343 3.63497 50.9046 4.08788C50.8748 4.5408 50.832 5.05868 50.778 5.61925C51.1415 4.59834 51.5588 3.84472 52.0301 3.3584C52.2385 3.12958 52.4924 2.94656 52.7755 2.82097C53.0587 2.69538 53.3649 2.62997 53.6748 2.62891C53.8384 2.63055 54.0013 2.65047 54.1604 2.68831C54.3687 2.73754 54.5737 2.79953 54.7744 2.87393L54.3111 5.14035C54.151 5.05797 53.9834 4.99085 53.8106 4.93988C53.663 4.89788 53.5102 4.87664 53.3567 4.87677C52.6484 4.87677 52.0841 5.22698 51.6636 5.92739C51.2432 6.62779 51.0323 7.57693 51.0311 8.77481V13.7012H49.005Z" fill="#355CE0"/>
        <path d="M61.833 13.7012C61.8516 13.2836 61.8795 12.877 61.9186 12.478C61.9577 12.0789 62.0079 11.6835 62.0693 11.29C61.8159 12.0613 61.3673 12.7543 60.767 13.3021C60.2477 13.7582 59.5778 14.0067 58.886 14.0001C57.6941 14.0001 56.7359 13.4865 56.0116 12.4594C55.2872 11.4323 54.925 10.0637 54.925 8.35347C54.925 6.64947 55.2897 5.28083 56.019 4.24754C56.7483 3.21426 57.704 2.69761 58.886 2.69761C59.5269 2.6879 60.1541 2.88304 60.6758 3.25447C61.229 3.66865 61.6592 4.22487 61.9205 4.8638C61.8398 4.52589 61.7777 4.18384 61.7344 3.83918C61.6916 3.49578 61.6656 3.14496 61.6525 2.78857H63.6786V13.7012H61.833ZM59.3344 12.2329C60.0563 12.2329 60.633 11.8914 61.0646 11.2083C61.4963 10.5252 61.7152 9.60394 61.7214 8.44443C61.7214 7.29482 61.5074 6.38094 61.0795 5.70281C60.6516 5.02468 60.0842 4.68499 59.3772 4.68375C58.6553 4.68375 58.0786 5.02158 57.6469 5.69724C57.2153 6.3729 56.9982 7.28863 56.9958 8.44443C56.9958 9.60517 57.211 10.5265 57.6413 11.2083C58.0717 11.8902 58.6361 12.2317 59.3344 12.2329Z" fill="#355CE0"/>
        <path d="M72.9345 13.7011V6.90367C72.9345 6.0628 72.8024 5.44654 72.5382 5.04746C72.274 4.64838 71.8629 4.45347 71.2991 4.45347C70.5549 4.45347 69.9552 4.80739 69.5 5.51522C69.0449 6.22306 68.8179 7.17467 68.8191 8.37007V13.7011H66.7931V2.78846H68.6275C68.6163 3.2785 68.5903 3.75925 68.5512 4.23444C68.5121 4.70963 68.4638 5.17182 68.4098 5.62474C68.7435 4.64714 69.2067 3.90466 69.7996 3.39729C70.3844 2.89338 71.1349 2.6224 71.9075 2.63625C72.8874 2.63625 73.6415 2.96542 74.1698 3.62375C74.6982 4.28208 74.9618 5.22194 74.9605 6.44333V13.7011H72.9345Z" fill="#355CE0"/>
        <path d="M83.3178 5.57096C83.0006 5.1396 82.6041 4.77235 82.1494 4.4888C81.7583 4.25705 81.3112 4.13638 80.8564 4.13983C80.4384 4.12466 80.0283 4.25601 79.6973 4.51107C79.5525 4.61839 79.4353 4.7585 79.3554 4.91986C79.2755 5.08122 79.2352 5.25922 79.2378 5.43917C79.2351 5.58157 79.2617 5.72301 79.3158 5.85482C79.3698 5.98664 79.4503 6.10606 79.5522 6.20579C79.8496 6.46617 80.2018 6.65649 80.5829 6.76265L80.9196 6.87216C82.1178 7.26321 82.8775 7.5472 83.1987 7.72416C83.9206 8.12139 84.4235 8.53656 84.7076 8.96968C85.0081 9.46093 85.1564 10.0299 85.1336 10.605C85.1336 11.6333 84.7838 12.46 84.0843 13.0849C83.3848 13.7098 82.4508 14.0192 81.2824 14.013C80.4676 14.032 79.6599 13.8567 78.9266 13.5016C78.1934 13.1464 77.5557 12.6217 77.0666 11.9712L78.475 10.7294C78.8098 11.2104 79.2477 11.6111 79.7568 11.9025C80.2371 12.1703 80.7788 12.3091 81.3289 12.3053C81.836 12.3207 82.3339 12.1679 82.7448 11.8709C82.9201 11.7492 83.0627 11.5863 83.16 11.3966C83.2573 11.2069 83.3064 10.9963 83.3029 10.7832C83.3055 10.6129 83.2726 10.444 83.2063 10.2871C83.14 10.1302 83.0418 9.9888 82.9178 9.87179C82.5552 9.56461 82.1307 9.33864 81.6731 9.20913C81.4424 9.13117 81.1187 9.02536 80.702 8.89172C79.8052 8.60215 79.239 8.38188 79.0033 8.23091C78.5159 7.95785 78.0977 7.57683 77.781 7.11718C77.5246 6.69064 77.3955 6.19995 77.4089 5.70275C77.3972 5.27085 77.4793 4.84153 77.6495 4.44424C77.8197 4.04695 78.074 3.69108 78.395 3.40106C79.0523 2.79841 79.8895 2.49647 80.9066 2.49523C81.6545 2.48341 82.3948 2.64613 83.0685 2.97042C83.7205 3.29678 84.2821 3.77805 84.7038 4.37185L83.3178 5.57096Z" fill="#355CE0"/>
        <path d="M87.4053 13.701V-0.90918H89.4323V13.701H87.4053Z" fill="#355CE0"/>
        <path d="M98.4974 13.7012C98.516 13.2836 98.544 12.877 98.583 12.478C98.6221 12.0789 98.6723 11.6835 98.7337 11.29C98.4803 12.0613 98.0317 12.7543 97.4314 13.3021C96.9121 13.7582 96.2422 14.0067 95.5504 14.0001C94.3585 14.0001 93.4003 13.4865 92.676 12.4594C91.9517 11.4323 91.5895 10.0637 91.5895 8.35347C91.5895 6.64947 91.9541 5.28083 92.6834 4.24754C93.4127 3.21426 94.3684 2.69761 95.5504 2.69761C96.1913 2.6879 96.8185 2.88304 97.3402 3.25447C97.8934 3.66865 98.3236 4.22487 98.5849 4.8638C98.5042 4.52589 98.4421 4.18384 98.3988 3.83918C98.356 3.49578 98.33 3.14496 98.317 2.78857H100.343V13.7012H98.4974ZM95.9988 12.2329C96.7207 12.2329 97.2974 11.8914 97.7291 11.2083C98.1607 10.5252 98.3753 9.60394 98.3728 8.44443C98.3728 7.29482 98.1588 6.38094 97.7309 5.70281C97.303 5.02468 96.7356 4.68499 96.0286 4.68375C95.3067 4.68375 94.73 5.02158 94.2983 5.69724C93.8667 6.3729 93.6503 7.28863 93.649 8.44443C93.649 9.60517 93.8636 10.5265 94.2928 11.2083C94.7219 11.8902 95.2906 12.2317 95.9988 12.2329Z" fill="#355CE0"/>
        <path d="M105.893 -0.682617V2.78849H107.91V4.32914H105.893V13.7011H103.867V4.32914H101.841V2.78849H103.867V-0.682617H105.893Z" fill="#355CE0"/>
        <path d="M111.943 0.414387C111.948 0.596947 111.911 0.778207 111.835 0.944461C111.76 1.11071 111.647 1.25761 111.506 1.37405C111.186 1.63277 110.782 1.76493 110.371 1.74529C109.966 1.76277 109.568 1.63059 109.255 1.37405C109.115 1.25558 109.005 1.10723 108.931 0.940088C108.857 0.772947 108.822 0.591335 108.829 0.408818C108.822 0.227106 108.856 0.0461445 108.929 -0.120416C109.002 -0.286977 109.112 -0.434788 109.251 -0.552696C109.566 -0.80499 109.963 -0.9337 110.367 -0.914657C110.78 -0.931892 111.185 -0.800078 111.508 -0.543415C111.649 -0.427356 111.761 -0.280746 111.837 -0.11476C111.912 0.0512263 111.948 0.232207 111.943 0.414387ZM109.372 13.7011V3.14115H111.396V13.7011H109.372Z" fill="#355CE0"/>
        <path d="M118.075 14.0001C116.694 14.0001 115.595 13.4822 114.78 12.4464C113.965 11.4107 113.559 10.0099 113.56 8.24399C113.56 6.48059 113.967 5.08039 114.78 4.04339C115.594 3.00639 116.692 2.48851 118.075 2.48975C119.462 2.48975 120.565 3.00949 121.385 4.04896C122.205 5.08844 122.615 6.48678 122.617 8.24399C122.617 10.0037 122.206 11.4026 121.385 12.4409C120.564 13.4791 119.461 13.9988 118.075 14.0001ZM118.075 12.1958C118.819 12.1958 119.413 11.8395 119.856 11.1267C120.299 10.4139 120.517 9.44743 120.512 8.22728C120.512 7.01951 120.292 6.05552 119.85 5.33531C119.409 4.6151 118.823 4.25562 118.094 4.25686C117.35 4.25686 116.762 4.61201 116.332 5.32232C115.902 6.03263 115.683 7.00095 115.675 8.22728C115.675 9.44124 115.894 10.4065 116.33 11.123C116.767 11.8395 117.348 12.1971 118.075 12.1958Z" fill="#355CE0"/>
        <path d="M130.974 13.7011V6.90368C130.974 6.06282 130.842 5.44656 130.58 5.04748C130.317 4.64839 129.902 4.45349 129.339 4.45349C128.594 4.45349 127.995 4.80741 127.54 5.51524C127.084 6.22307 126.857 7.17469 126.859 8.37009V13.7011H124.833V2.78847H126.669C126.656 3.27851 126.63 3.75927 126.591 4.23446C126.552 4.70965 126.505 5.17184 126.449 5.62476C126.783 4.64716 127.247 3.90467 127.841 3.39731C128.425 2.89321 129.175 2.62217 129.947 2.63627C130.929 2.63627 131.683 2.96543 132.209 3.62377C132.735 4.2821 132.999 5.22196 133 6.44334V13.7011H130.974Z" fill="#355CE0"/>
        <path d="M14.1638 0.817346C13.633 1.04283 13.2103 1.46458 12.9843 1.99418C12.9777 2.0121 12.9659 2.02758 12.9502 2.03852C12.9346 2.04946 12.9159 2.05533 12.8968 2.05533C12.8777 2.05533 12.8591 2.04946 12.8434 2.03852C12.8278 2.02758 12.8159 2.0121 12.8094 1.99418C12.5834 1.46458 12.1606 1.04283 11.6298 0.817346C11.6119 0.810843 11.5964 0.798981 11.5854 0.783372C11.5744 0.767763 11.5685 0.749165 11.5685 0.730104C11.5685 0.711043 11.5744 0.692445 11.5854 0.676836C11.5964 0.661227 11.6119 0.649366 11.6298 0.642863C12.1603 0.417816 12.583 -0.00321716 12.8094 -0.532116C12.8159 -0.550033 12.8278 -0.565513 12.8434 -0.576453C12.8591 -0.587393 12.8777 -0.593262 12.8968 -0.593262C12.9159 -0.593262 12.9346 -0.587393 12.9502 -0.576453C12.9659 -0.565513 12.9777 -0.550033 12.9843 -0.532116C13.2097 -0.00255334 13.6327 0.418799 14.1638 0.642863C14.1818 0.649366 14.1973 0.661227 14.2082 0.676836C14.2192 0.692445 14.2251 0.711043 14.2251 0.730104C14.2251 0.749165 14.2192 0.767763 14.2082 0.783372C14.1973 0.798981 14.1818 0.810843 14.1638 0.817346Z" fill="#355CE0"/>
    </g>
    <defs>
        <clipPath id="clip0_0_449">
            <rect width="139" height="15" fill="white"/>
        </clipPath>
    </defs>
</svg>