<svg xmlns="http://www.w3.org/2000/svg" xmlns:xlink="http://www.w3.org/1999/xlink"><symbol id="icon-arr-down" viewBox="0 0 10 8"><path d="M5 8L.67.5h8.66L5 8z"/></symbol><symbol id="icon-menu" viewBox="0 0 20 15"><path d="M0 13.125h20V15H0zM0 6.563h20v1.875H0zM0 0h20v1.875H0z"/></symbol><symbol id="icon-slider-next" viewBox="0 0 18 32"><path d="M1 1l15 15L1 31" stroke-width="2"/></symbol><symbol id="icon-slider-prev" viewBox="0 0 18 32"><path d="M17 1L2 16l15 15" stroke-width="2"/></symbol> <view id="icon-arr-down-view-primary" viewBox="0 0 10 8"/><view id="icon-arr-down-view-black" viewBox="0 18 10 8"/><view id="icon-arr-down-view-white" viewBox="0 36 10 8"/><view id="icon-menu-view-primary" viewBox="0 54 20 15"/><view id="icon-menu-view-black" viewBox="0 79 20 15"/><view id="icon-menu-view-white" viewBox="0 104 20 15"/><view id="icon-slider-next-view-primary" viewBox="0 129 18 32"/><view id="icon-slider-next-view-black" viewBox="0 171 18 32"/><view id="icon-slider-next-view-white" viewBox="0 213 18 32"/><view id="icon-slider-prev-view-primary" viewBox="0 255 18 32"/><view id="icon-slider-prev-view-black" viewBox="0 297 18 32"/><view id="icon-slider-prev-view-white" viewBox="0 339 18 32"/> <use xlink:href="#icon-arr-down" x="0" y="0" width="10" height="8" style="fill:#355CE0"/><use xlink:href="#icon-arr-down" x="0" y="18" width="10" height="8" style="fill:#050F32"/><use xlink:href="#icon-arr-down" x="0" y="36" width="10" height="8" style="fill:#ffffff"/><use xlink:href="#icon-menu" x="0" y="54" width="20" height="15" style="fill:#355CE0"/><use xlink:href="#icon-menu" x="0" y="79" width="20" height="15" style="fill:#050F32"/><use xlink:href="#icon-menu" x="0" y="104" width="20" height="15" style="fill:#ffffff"/><use xlink:href="#icon-slider-next" x="0" y="129" width="18" height="32" style="fill:#355CE0"/><use xlink:href="#icon-slider-next" x="0" y="171" width="18" height="32" style="fill:#050F32"/><use xlink:href="#icon-slider-next" x="0" y="213" width="18" height="32" style="fill:#ffffff"/><use xlink:href="#icon-slider-prev" x="0" y="255" width="18" height="32" style="fill:#355CE0"/><use xlink:href="#icon-slider-prev" x="0" y="297" width="18" height="32" style="fill:#050F32"/><use xlink:href="#icon-slider-prev" x="0" y="339" width="18" height="32" style="fill:#ffffff"/></svg>