<svg width="296" height="50" viewBox="0 0 296 50" fill="none" xmlns="http://www.w3.org/2000/svg">
    <g clip-path="url(#clip0_0_499)">
        <path d="M67.863 32.0549C64.9233 32.0549 62.5858 30.9482 60.8505 28.7348C59.1152 26.5214 58.2449 23.5279 58.2396 19.7542C58.2396 15.9859 59.1073 12.9937 60.8426 10.7776C62.5779 8.56158 64.9154 7.45488 67.8551 7.45752C70.808 7.45752 73.1587 8.5682 74.9072 10.7895C76.6558 13.0109 77.5287 15.9991 77.526 19.7542C77.526 23.5146 76.6531 26.5042 74.9072 28.7229C73.1614 30.9416 70.8133 32.0523 67.863 32.0549ZM67.863 28.1993C69.4478 28.1993 70.7116 27.4377 71.6545 25.9145C72.5975 24.3913 73.0676 22.326 73.065 19.7185C73.065 17.1375 72.5948 15.0775 71.6545 13.5384C70.7143 11.9994 69.4636 11.2312 67.9026 11.2338C66.3179 11.2338 65.0659 11.9928 64.1468 13.5107C63.2276 15.0286 62.7641 17.0979 62.7562 19.7185C62.7562 22.3127 63.2197 24.3754 64.1468 25.9066C65.0739 27.4377 66.3126 28.2019 67.863 28.1993Z" fill="#DFE2ED"/>
        <path d="M92.5841 4.72448V31.4163H88.1943V4.72448H78.4442V0.678467H102.291V4.72448H92.5841Z" fill="#DFE2ED"/>
        <path d="M104.133 31.4164V8.09626H108.293C108.293 8.9729 108.241 9.90507 108.178 10.8729C108.115 11.8408 108.024 12.9475 107.909 14.1454C108.683 11.9638 109.571 10.3533 110.575 9.31403C111.019 8.82507 111.559 8.43395 112.162 8.16556C112.765 7.89717 113.417 7.7574 114.077 7.75513C114.426 7.75863 114.772 7.80121 115.111 7.88206C115.555 7.98727 115.992 8.11974 116.419 8.27873L115.432 13.122C115.091 12.946 114.734 12.8026 114.367 12.6936C114.052 12.6039 113.727 12.5585 113.4 12.5588C111.892 12.5588 110.69 13.3072 109.795 14.8039C108.899 16.3007 108.45 18.329 108.447 20.8888V31.4164H104.133Z" fill="#DFE2ED"/>
        <path d="M131.45 31.4163C131.49 30.5238 131.549 29.6551 131.632 28.8023C131.716 27.9495 131.823 27.1046 131.953 26.2636C131.414 27.9119 130.458 29.3929 129.18 30.5635C128.074 31.5381 126.648 32.0693 125.175 32.055C122.636 32.055 120.596 30.9575 119.053 28.7626C117.511 26.5677 116.74 23.643 116.74 19.9883C116.74 16.3469 117.516 13.4222 119.069 11.214C120.622 9.00592 122.657 7.90186 125.175 7.90186C126.539 7.88111 127.875 8.29811 128.986 9.09187C130.164 9.97696 131.08 11.1656 131.636 12.531C131.465 11.8089 131.332 11.0779 131.24 10.3414C131.149 9.60753 131.094 8.85783 131.066 8.09623H135.38V31.4163H131.45ZM126.129 28.2787C127.667 28.2787 128.895 27.5488 129.814 26.0891C130.733 24.6294 131.199 22.6606 131.212 20.1827C131.212 17.726 130.757 15.7731 129.846 14.3239C128.934 12.8748 127.726 12.1489 126.22 12.1462C124.683 12.1462 123.455 12.8681 122.536 14.312C121.617 15.7559 121.155 17.7128 121.149 20.1827C121.149 22.6632 121.608 24.632 122.524 26.0891C123.441 27.5462 124.642 28.2761 126.129 28.2787Z" fill="#DFE2ED"/>
        <path d="M155.091 31.4162V16.8903C155.091 15.0933 154.809 13.7764 154.247 12.9236C153.684 12.0707 152.809 11.6542 151.608 11.6542C150.023 11.6542 148.746 12.4105 147.777 13.9232C146.808 15.4358 146.324 17.4694 146.327 20.0239V31.4162H142.013V8.09612H145.919C145.895 9.14333 145.84 10.1707 145.756 11.1862C145.673 12.2016 145.57 13.1893 145.455 14.1572C146.166 12.0681 147.152 10.4814 148.415 9.3972C149.66 8.32034 151.259 7.74126 152.904 7.77086C154.99 7.77086 156.596 8.47428 157.721 9.88113C158.847 11.288 159.408 13.2964 159.405 15.9065V31.4162H155.091Z" fill="#DFE2ED"/>
        <path d="M177.202 14.0421C176.527 13.1203 175.682 12.3355 174.714 11.7295C173.881 11.2343 172.929 10.9764 171.96 10.9838C171.07 10.9514 170.197 11.232 169.492 11.7771C169.184 12.0065 168.934 12.3059 168.764 12.6507C168.594 12.9955 168.508 13.3759 168.514 13.7605C168.508 14.0648 168.564 14.367 168.68 14.6487C168.795 14.9304 168.966 15.1856 169.183 15.3987C169.816 15.9551 170.566 16.3618 171.378 16.5887L172.095 16.8227C174.647 17.6584 176.264 18.2653 176.948 18.6434C178.486 19.4923 179.557 20.3795 180.161 21.3051C180.801 22.3549 181.117 23.5708 181.069 24.7997C181.069 26.9973 180.324 28.7638 178.834 30.0992C177.345 31.4347 175.356 32.0958 172.868 32.0826C171.132 32.1232 169.412 31.7485 167.851 30.9896C166.289 30.2307 164.931 29.1095 163.89 27.7192L166.889 25.0655C167.602 26.0934 168.535 26.9497 169.619 27.5724C170.642 28.1448 171.795 28.4415 172.967 28.4332C174.047 28.4661 175.107 28.1397 175.982 27.505C176.355 27.2448 176.659 26.8967 176.866 26.4914C177.073 26.086 177.178 25.6359 177.17 25.1805C177.176 24.8167 177.106 24.4557 176.965 24.1204C176.823 23.7852 176.614 23.4829 176.35 23.2329C175.578 22.5764 174.674 22.0935 173.7 21.8168C173.208 21.6502 172.519 21.4241 171.632 21.1385C169.722 20.5197 168.516 20.049 168.014 19.7263C166.976 19.1428 166.086 18.3286 165.411 17.3463C164.865 16.4348 164.59 15.3862 164.619 14.3237C164.594 13.4008 164.769 12.4833 165.131 11.6343C165.494 10.7853 166.035 10.0248 166.719 9.40504C168.119 8.11719 169.901 7.47195 172.067 7.4693C173.66 7.44404 175.236 7.79177 176.671 8.48477C178.059 9.18221 179.255 10.2107 180.154 11.4796L177.202 14.0421Z" fill="#DFE2ED"/>
        <path d="M185.906 31.4163V0.19458H190.221V31.4163H185.906Z" fill="#DFE2ED"/>
        <path d="M209.527 31.4163C209.567 30.5238 209.626 29.6551 209.709 28.8023C209.792 27.9495 209.899 27.1046 210.03 26.2636C209.49 27.9119 208.535 29.3929 207.257 30.5635C206.151 31.5381 204.724 32.0693 203.251 32.055C200.713 32.055 198.673 30.9575 197.13 28.7626C195.588 26.5677 194.816 23.643 194.816 19.9883C194.816 16.3469 195.593 13.4222 197.146 11.214C198.699 9.00592 200.734 7.90186 203.251 7.90186C204.616 7.88111 205.952 8.29811 207.063 9.09187C208.241 9.97696 209.157 11.1656 209.713 12.531C209.541 11.8089 209.409 11.0779 209.317 10.3414C209.226 9.60753 209.17 8.85783 209.143 8.09623H213.457V31.4163H209.527ZM204.206 28.2787C205.743 28.2787 206.972 27.5488 207.891 26.0891C208.81 24.6294 209.267 22.6606 209.261 20.1827C209.261 17.726 208.806 15.7731 207.895 14.3239C206.983 12.8748 205.775 12.1489 204.27 12.1462C202.732 12.1462 201.504 12.8681 200.585 14.312C199.666 15.7559 199.205 17.7128 199.202 20.1827C199.202 22.6632 199.659 24.632 200.573 26.0891C201.487 27.5462 202.698 28.2761 204.206 28.2787Z" fill="#DFE2ED"/>
        <path d="M225.275 0.678467V8.09616H229.57V11.3885H225.275V31.4163H220.961V11.3885H216.646V8.09616H220.961V0.678467H225.275Z" fill="#DFE2ED"/>
        <path d="M238.159 3.02256C238.17 3.41269 238.091 3.80003 237.93 4.15532C237.769 4.5106 237.529 4.82451 237.228 5.07333C236.548 5.62621 235.687 5.90864 234.812 5.86667C233.949 5.90402 233.102 5.62157 232.435 5.07333C232.138 4.82016 231.902 4.50315 231.745 4.14597C231.588 3.7888 231.514 3.40069 231.527 3.01066C231.512 2.62234 231.585 2.23563 231.741 1.87969C231.897 1.52375 232.131 1.20789 232.427 0.955917C233.098 0.41677 233.944 0.141719 234.804 0.182415C235.682 0.145583 236.545 0.427266 237.232 0.975751C237.532 1.22377 237.772 1.53707 237.932 1.89178C238.093 2.24649 238.171 2.63324 238.159 3.02256ZM232.684 31.416V8.84961H236.995V31.416H232.684Z" fill="#DFE2ED"/>
        <path d="M251.218 32.0547C248.275 32.0547 245.937 30.948 244.201 28.7346C242.466 26.5211 241.6 23.5276 241.602 19.754C241.602 15.9856 242.469 12.9934 244.201 10.7774C245.934 8.56134 248.273 7.45464 251.218 7.45728C254.171 7.45728 256.52 8.56795 258.266 10.7893C260.012 13.0106 260.886 15.9989 260.889 19.754C260.889 23.5144 260.015 26.504 258.266 28.7227C256.517 30.9413 254.168 32.052 251.218 32.0547ZM251.218 28.199C252.803 28.199 254.066 27.4374 255.009 25.9142C255.952 24.391 256.418 22.3257 256.408 19.7183C256.408 17.1373 255.938 15.0773 254.997 13.5382C254.057 11.9991 252.81 11.2309 251.257 11.2336C249.673 11.2336 248.422 11.9925 247.506 13.5104C246.589 15.0284 246.123 17.0976 246.107 19.7183C246.107 22.3125 246.572 24.3752 247.502 25.9063C248.431 27.4374 249.67 28.2017 251.218 28.199Z" fill="#DFE2ED"/>
        <path d="M278.685 31.4163V16.8903C278.685 15.0934 278.404 13.7764 277.846 12.9236C277.287 12.0708 276.403 11.6543 275.203 11.6543C273.618 11.6543 272.341 12.4106 271.372 13.9232C270.403 15.4358 269.919 17.4694 269.922 20.024V31.4163H265.607V8.09616H269.518C269.49 9.14336 269.435 10.1707 269.351 11.1862C269.268 12.2017 269.169 13.1894 269.05 14.1572C269.761 12.0681 270.749 10.4815 272.014 9.39723C273.257 8.31998 274.854 7.74078 276.499 7.77089C278.59 7.77089 280.196 8.47432 281.316 9.88117C282.436 11.288 282.997 13.2965 283 15.9066V31.4163H278.685Z" fill="#DFE2ED"/>
        <path d="M0 24.1969L3.77171 22.8958C4.13124 24.3838 4.94229 25.7238 6.09337 26.7316C7.21425 27.6307 8.61983 28.0979 10.0553 28.0485C10.7224 28.0819 11.3894 27.9781 12.0149 27.7434C12.6404 27.5087 13.2113 27.1481 13.6923 26.684C14.1522 26.1936 14.508 25.6149 14.7382 24.9828C14.9684 24.3508 15.0681 23.6786 15.0314 23.0069C15.0752 21.8876 14.6799 20.7956 13.93 19.9644C13.1931 19.1711 11.5608 18.2548 9.03309 17.2155C6.10658 16.0176 4.04376 14.7337 2.84463 13.3639C1.62669 11.9452 0.984818 10.1205 1.04594 8.25081C1.01042 7.15202 1.20339 6.05782 1.6126 5.03765C2.02182 4.01747 2.63834 3.09358 3.42306 2.3246C5.02366 0.774945 7.0812 0.000120608 9.59567 0.000120608C11.2254 -0.0217861 12.8332 0.378583 14.2628 1.16236C15.7792 2.04403 17.0842 3.24772 18.086 4.68874L15.1621 7.57251C14.431 6.50427 13.5145 5.57592 12.4562 4.83154C11.6174 4.25698 10.6277 3.94369 9.61152 3.9311C8.49794 3.88297 7.40897 4.2682 6.57276 5.00607C6.18988 5.36212 5.88804 5.79652 5.68774 6.27974C5.48743 6.76296 5.39337 7.28369 5.41193 7.80655C5.39312 8.66202 5.65936 9.4994 6.16865 10.1866C6.82243 10.9777 7.64937 11.6075 8.58539 12.0271C9.58115 12.519 10.7552 13.0479 12.1075 13.6138C12.9474 13.9368 13.7676 14.309 14.5639 14.7284C16.3943 15.9131 17.6581 17.1111 18.3554 18.3222C19.0527 19.5334 19.4013 21.0724 19.4013 22.9394C19.4013 25.6262 18.5429 27.8185 16.8261 29.5162C15.1093 31.2139 12.8906 32.0628 10.1701 32.0628C7.52889 32.0628 5.3142 31.366 3.52607 29.9724C1.69472 28.5349 0.442742 26.4842 0 24.1969H0Z" fill="#DFE2ED"/>
        <path d="M25.3996 31.4163V8.84985H29.7141V31.4163H25.3996Z" fill="#DFE2ED"/>
        <path d="M49.3294 31.4163V16.8903C49.3294 15.0934 49.0481 13.7764 48.4895 12.9236C47.9308 12.0708 47.0473 11.6543 45.8469 11.6543C44.2621 11.6543 42.9851 12.4106 42.0158 13.9232C41.0464 15.4358 40.5631 17.4694 40.5657 20.024V31.4163H36.2512V8.09616H40.1616C40.1339 9.14336 40.0784 10.1707 39.9952 11.1862C39.912 12.2017 39.813 13.1894 39.6981 14.1572C40.4059 12.0681 41.3924 10.4815 42.6576 9.39723C43.9019 8.31828 45.5005 7.73768 47.1464 7.76692C49.2383 7.76692 50.8441 8.47035 51.964 9.8772C53.0839 11.284 53.6452 13.2925 53.6478 15.9026V31.4163H49.3294Z" fill="#DFE2ED"/>
        <path d="M30.1618 3.88358C29.0314 4.36545 28.1312 5.26672 27.65 6.39846C27.6361 6.43675 27.6108 6.46983 27.5774 6.49321C27.5441 6.51659 27.5044 6.52913 27.4637 6.52913C27.4231 6.52913 27.3834 6.51659 27.35 6.49321C27.3167 6.46983 27.2914 6.43675 27.2775 6.39846C26.7963 5.26672 25.8961 4.36545 24.7657 3.88358C24.7275 3.86969 24.6944 3.84434 24.6711 3.81098C24.6477 3.77763 24.6352 3.73788 24.6352 3.69715C24.6352 3.65642 24.6477 3.61667 24.6711 3.58332C24.6944 3.54996 24.7275 3.52461 24.7657 3.51072C25.8953 3.0298 26.7954 2.13006 27.2775 0.999808C27.2914 0.96152 27.3167 0.928438 27.35 0.90506C27.3834 0.881682 27.4231 0.869141 27.4637 0.869141C27.5044 0.869141 27.5441 0.881682 27.5774 0.90506C27.6108 0.928438 27.6361 0.96152 27.65 0.999808C28.13 2.13147 29.0307 3.0319 30.1618 3.51072C30.2 3.52461 30.2331 3.54996 30.2564 3.58332C30.2798 3.61667 30.2923 3.65642 30.2923 3.69715C30.2923 3.73788 30.2798 3.77763 30.2564 3.81098C30.2331 3.84434 30.2 3.86969 30.1618 3.88358Z" fill="#DFE2ED"/>
        <path d="M4.40166 43.3281V48.7902H3.87869V43.7565H1.10538V48.7902H0.590332V43.3162L4.40166 43.3281Z" fill="#DFE2ED"/>
        <path d="M6.40161 48.7901V43.3161C6.84138 43.2725 7.45151 43.2526 8.232 43.2526C8.70283 43.2015 9.17585 43.3273 9.55923 43.6057C9.80487 43.841 9.92768 44.2813 9.92768 44.9266C9.98083 45.3968 9.85179 45.8696 9.56715 46.2475C9.20008 46.522 8.74319 46.6481 8.28747 46.6005C7.83185 46.6005 7.3802 46.5767 6.92458 46.537V48.7901H6.40161ZM6.92458 46.1483H8.22011C8.54766 46.1776 8.87459 46.0859 9.13927 45.8905C9.3429 45.613 9.43354 45.2684 9.39283 44.9266C9.43423 44.5809 9.34366 44.2324 9.13927 43.9508C8.87662 43.7515 8.54766 43.6606 8.22011 43.6969C7.77638 43.6969 7.34454 43.6969 6.92062 43.6969L6.92458 46.1483Z" fill="#DFE2ED"/>
        <path d="M12.407 43.8559C12.7199 43.4593 13.2667 43.2332 14.0472 43.2332C14.8277 43.2332 15.3744 43.4394 15.6874 43.8559C16.0004 44.2724 16.1549 45.0063 16.1549 46.0654C16.1549 47.1245 16.0004 47.8583 15.6874 48.2748C15.3744 48.6913 14.8277 48.8976 14.0472 48.8976C13.2667 48.8976 12.7199 48.6873 12.407 48.2748C12.094 47.8623 11.9395 47.1205 11.9395 46.0654C11.9395 45.0102 12.094 44.2685 12.407 43.8559ZM15.2674 44.2129C15.1263 44.028 14.9397 43.8829 14.7258 43.7918C14.5119 43.7007 14.2781 43.6668 14.0472 43.6933C13.8157 43.6673 13.5815 43.7014 13.367 43.7924C13.1526 43.8834 12.9652 44.0283 12.823 44.2129C12.5932 44.558 12.4783 45.1768 12.4783 46.0654C12.4783 46.9539 12.5932 47.5687 12.823 47.9178C12.9657 48.1019 13.1532 48.2463 13.3675 48.3372C13.5818 48.4282 13.8158 48.4627 14.0472 48.4374C14.278 48.4632 14.5116 48.4288 14.7254 48.3378C14.9391 48.2468 15.1258 48.1021 15.2674 47.9178C15.5424 47.3413 15.6599 46.7021 15.6082 46.0654C15.6082 45.1768 15.4933 44.558 15.2674 44.2129Z" fill="#DFE2ED"/>
        <path d="M21.2016 42.8401V43.6334C22.1248 43.6572 22.7864 43.8476 23.1548 44.1967C23.5233 44.5458 23.7214 45.1408 23.7214 45.9896C23.7214 46.8385 23.5312 47.4097 23.1548 47.7588C22.7785 48.1078 22.1248 48.2943 21.2016 48.322V49.1154H20.6787V48.322C19.7569 48.2956 19.1045 48.1092 18.7215 47.7627C18.3385 47.4163 18.1497 46.8332 18.155 46.0134C18.155 45.1646 18.3451 44.5696 18.7255 44.2205C19.1058 43.8714 19.7397 43.6691 20.6787 43.6334V42.8401H21.2016ZM20.6945 47.8778V44.0698C19.9378 44.0896 19.4148 44.2364 19.1098 44.514C18.8047 44.7917 18.674 45.2796 18.674 45.9896C18.674 46.6997 18.8205 47.1796 19.1098 47.4414C19.399 47.7032 19.9378 47.8659 20.6945 47.8897V47.8778ZM21.1779 44.0698V47.8778C21.9346 47.854 22.4576 47.7112 22.7626 47.4414C23.0677 47.1717 23.2024 46.6878 23.2064 45.9896C23.2103 45.2915 23.0518 44.7996 22.7626 44.518C22.4734 44.2364 21.9346 44.1055 21.1779 44.0817V44.0698Z" fill="#DFE2ED"/>
        <path d="M28.995 48.3656L29.0188 48.7623C28.5249 48.794 27.7457 48.8099 26.6813 48.8099C26.4258 48.8215 26.1758 48.7333 25.984 48.5639C25.8964 48.4789 25.8279 48.3763 25.7828 48.2628C25.7377 48.1493 25.7172 48.0275 25.7225 47.9055V44.2244C25.7164 44.1023 25.7366 43.9803 25.7817 43.8667C25.8268 43.7531 25.8958 43.6505 25.984 43.5659C26.1747 43.3947 26.4255 43.3062 26.6813 43.32C27.7378 43.32 28.5169 43.3359 29.0188 43.3676L28.995 43.7643H26.7764C26.4158 43.7643 26.2375 43.9547 26.2375 44.3434V45.6841H28.6662V46.1046H26.2375V47.7944C26.2375 48.1911 26.4158 48.3656 26.7764 48.3656H28.995Z" fill="#DFE2ED"/>
        <path d="M34.632 48.342L34.6954 48.7387C34.1766 48.8626 33.6439 48.9186 33.1107 48.9053C32.3183 48.9053 31.7993 48.6911 31.4863 48.2706C31.1733 47.8501 31.0188 47.1123 31.0188 46.0731C31.0188 45.0338 31.1733 44.296 31.4863 43.8755C31.7993 43.4551 32.3381 43.2409 33.1107 43.2409C33.601 43.2303 34.0908 43.2809 34.5686 43.3916L34.5053 43.7883C34.0422 43.7374 33.5765 43.7136 33.1107 43.7169C32.8813 43.6909 32.6492 43.7248 32.4368 43.8151C32.2244 43.9055 32.0389 44.0493 31.8983 44.2325C31.6725 44.5737 31.5576 45.1925 31.5576 46.081C31.5576 46.9695 31.6725 47.5844 31.8983 47.9295C32.0394 48.1122 32.225 48.2555 32.4373 48.3458C32.6495 48.4361 32.8814 48.4703 33.1107 48.4451C33.6195 48.4454 34.1278 48.4109 34.632 48.342Z" fill="#DFE2ED"/>
        <path d="M40.3086 48.342L40.372 48.7387C39.8532 48.8626 39.3205 48.9186 38.7872 48.9053C37.9949 48.9053 37.4759 48.6911 37.1629 48.2706C36.8499 47.8501 36.6954 47.1123 36.6954 46.0731C36.6954 45.0338 36.8499 44.296 37.1629 43.8755C37.4759 43.4551 38.0147 43.2409 38.7872 43.2409C39.2776 43.2303 39.7674 43.2809 40.2452 43.3916L40.1818 43.7883C39.7187 43.7374 39.2531 43.7136 38.7872 43.7169C38.5579 43.6909 38.3258 43.7248 38.1134 43.8151C37.901 43.9055 37.7155 44.0493 37.5749 44.2325C37.3491 44.5737 37.2342 45.1925 37.2342 46.081C37.2342 46.9695 37.3491 47.5844 37.5749 47.9295C37.716 48.1122 37.9016 48.2555 38.1138 48.3458C38.3261 48.4361 38.558 48.4703 38.7872 48.4451C39.2961 48.4454 39.8044 48.4109 40.3086 48.342Z" fill="#DFE2ED"/>
        <path d="M46.3616 48.7902H45.8545V44.5895C45.8545 44.3911 45.8545 44.1928 45.8783 43.9865H45.8545C45.7277 44.2444 45.6326 44.4308 45.5692 44.5419L42.895 48.7902H42.372V43.3162H42.8712V47.497C42.8712 47.7033 42.8633 47.9096 42.8474 48.1159H42.8712C42.9372 47.9783 43.0402 47.7879 43.1802 47.5446L45.8109 43.3162H46.3616V48.7902Z" fill="#DFE2ED"/>
        <path d="M48.8291 43.8559C49.1421 43.4593 49.6888 43.2332 50.4693 43.2332C51.2498 43.2332 51.7965 43.4394 52.1095 43.8559C52.4225 44.2724 52.577 45.0063 52.577 46.0654C52.577 47.1245 52.4225 47.8583 52.1095 48.2748C51.7965 48.6913 51.2498 48.8976 50.4693 48.8976C49.6888 48.8976 49.1421 48.6873 48.8291 48.2748C48.5161 47.8623 48.3616 47.1205 48.3616 46.0654C48.3616 45.0102 48.5161 44.2685 48.8291 43.8559ZM51.6896 44.2129C51.531 44.0487 51.3411 43.9181 51.1312 43.8289C50.9212 43.7397 50.6954 43.6937 50.4673 43.6937C50.2392 43.6937 50.0134 43.7397 49.8035 43.8289C49.5935 43.9181 49.4036 44.0487 49.2451 44.2129C49.0153 44.558 48.9004 45.1768 48.9004 46.0654C48.9004 46.9539 49.0153 47.5687 49.2451 47.9178C49.4036 48.082 49.5935 48.2126 49.8035 48.3018C50.0134 48.391 50.2392 48.437 50.4673 48.437C50.6954 48.437 50.9212 48.391 51.1312 48.3018C51.3411 48.2126 51.531 48.082 51.6896 47.9178C51.9645 47.3413 52.0821 46.7021 52.0303 46.0654C52.0342 45.1768 51.9154 44.558 51.6896 44.2129Z" fill="#DFE2ED"/>
        <path d="M58.3646 43.3281V48.7902H57.8416V46.0849H55.0921V48.7902H54.577V43.3162H55.0921V45.6406H57.8416V43.3162L58.3646 43.3281Z" fill="#DFE2ED"/>
        <path d="M63.8907 46.9935H61.5136L60.9034 48.7904H60.3646L62.195 43.4671C62.2054 43.4213 62.2319 43.3808 62.2698 43.3531C62.3077 43.3254 62.3543 43.3124 62.401 43.3164H62.9953C63.042 43.3124 63.0887 43.3254 63.1265 43.3531C63.1644 43.3808 63.191 43.4213 63.2013 43.4671L65.0317 48.7904H64.4929L63.8907 46.9935ZM63.7402 46.5413L62.9478 44.1851C62.9301 44.1166 62.9089 44.0491 62.8844 43.9828L62.8051 43.7408H62.5833L62.4327 44.1851L61.6404 46.5413H63.7402Z" fill="#DFE2ED"/>
        <path d="M71.3105 43.3284V48.7905H70.7875V43.7568H69.5356C69.4544 43.7486 69.3725 43.7581 69.2954 43.7848C69.2183 43.8114 69.1479 43.8546 69.0891 43.9112C69.0303 43.9678 68.9845 44.0365 68.9549 44.1126C68.9253 44.1886 68.9125 44.2703 68.9175 44.3518C68.8198 45.4942 68.7366 46.273 68.6679 46.6881C68.6066 47.0824 68.4822 47.4641 68.2995 47.8187C68.2044 48.0788 68.0407 48.3083 67.8259 48.4829C67.6111 48.6575 67.3531 48.7706 67.0792 48.8103L67.0317 48.4137C67.3797 48.2772 67.6629 48.0135 67.8241 47.6759C67.9962 47.3323 68.1151 46.9644 68.1767 46.585C68.2453 46.1883 68.3259 45.4175 68.4183 44.2724C68.4137 44.1428 68.4369 44.0136 68.4863 43.8936C68.5357 43.7737 68.6103 43.6657 68.7049 43.577C68.7995 43.4883 68.9119 43.4209 69.0347 43.3794C69.1575 43.3379 69.2878 43.3232 69.4167 43.3363L71.3105 43.3284Z" fill="#DFE2ED"/>
        <path d="M73.8177 45.6171H75.1132C75.597 45.5649 76.0829 45.695 76.4761 45.982C76.7231 46.3606 76.8546 46.8031 76.8546 47.2553C76.8546 47.7076 76.7231 48.15 76.4761 48.5286C76.0987 48.7933 75.6392 48.9143 75.1806 48.8698C74.3882 48.8698 73.7582 48.846 73.3105 48.8063V43.3323H73.8256L73.8177 45.6171ZM73.8177 46.0614V48.3938C74.0276 48.3938 74.4595 48.3938 75.1092 48.3938C75.4463 48.43 75.7855 48.3473 76.068 48.1597C76.2711 47.8972 76.3623 47.565 76.3216 47.2355C76.365 47.0686 76.3636 46.8932 76.3177 46.727C76.2717 46.5608 76.1827 46.4097 76.0597 46.2889C75.9367 46.1682 75.784 46.0821 75.6171 46.0393C75.4502 45.9966 75.2751 45.9987 75.1092 46.0455L73.8177 46.0614Z" fill="#DFE2ED"/>
        <path d="M82.6422 43.3281V48.7902H82.1192V46.0849H79.3697V48.7902H78.8546V43.3162H79.3697V45.6406H82.1192V43.3162L82.6422 43.3281Z" fill="#DFE2ED"/>
        <path d="M85.1533 45.6168H86.4449C86.9287 45.5646 87.4146 45.6947 87.8078 45.9818C88.0548 46.3604 88.1863 46.8028 88.1863 47.2551C88.1863 47.7073 88.0548 48.1498 87.8078 48.5284C87.4302 48.7927 86.9708 48.9137 86.5122 48.8695C85.7198 48.8695 85.0899 48.8457 84.6422 48.8061V43.332H85.1533V45.6168ZM85.1533 46.0611V48.3935C85.3633 48.3935 85.7951 48.3935 86.4449 48.3935C86.7819 48.4298 87.1211 48.347 87.4036 48.1595C87.6067 47.897 87.6979 47.5648 87.6572 47.2353C87.7006 47.0684 87.6993 46.8929 87.6533 46.7267C87.6073 46.5605 87.5183 46.4094 87.3953 46.2887C87.2723 46.1679 87.1196 46.0819 86.9527 46.0391C86.7859 45.9964 86.6107 45.9985 86.4449 46.0452L85.1533 46.0611ZM89.7649 43.332V48.7902H89.2499V43.3162L89.7649 43.332Z" fill="#DFE2ED"/>
        <path d="M95.0385 48.3656L95.0623 48.7623C94.5683 48.794 93.7892 48.8099 92.7247 48.8099C92.4692 48.8215 92.2192 48.7333 92.0274 48.5639C91.9399 48.4789 91.8713 48.3763 91.8262 48.2628C91.7812 48.1493 91.7606 48.0275 91.766 47.9055V44.2244C91.7599 44.1023 91.78 43.9803 91.8252 43.8667C91.8703 43.7531 91.9393 43.6505 92.0274 43.5659C92.2181 43.3947 92.4689 43.3062 92.7247 43.32C93.7812 43.32 94.5604 43.3359 95.0623 43.3676L95.0385 43.7643H92.8198C92.4593 43.7643 92.281 43.9547 92.281 44.3434V45.6841H94.7215V46.1046H92.281V47.7944C92.281 48.1911 92.4593 48.3656 92.8198 48.3656H95.0385Z" fill="#DFE2ED"/>
        <path d="M104.874 43.3281V48.7902H104.351V43.7565H101.577V48.7902H101.062V43.3162L104.874 43.3281Z" fill="#DFE2ED"/>
        <path d="M110.147 48.3657L110.171 48.7624C109.672 48.7941 108.895 48.81 107.833 48.81C107.578 48.8224 107.328 48.7341 107.136 48.564C107.049 48.479 106.98 48.3763 106.935 48.2628C106.89 48.1493 106.869 48.0276 106.875 47.9056V44.2245C106.869 44.1024 106.889 43.9804 106.934 43.8668C106.979 43.7532 107.048 43.6506 107.136 43.566C107.23 43.481 107.341 43.4156 107.46 43.3734C107.58 43.3312 107.707 43.3131 107.833 43.3201C108.895 43.3201 109.672 43.3201 110.171 43.3677L110.147 43.7644H107.929C107.568 43.7644 107.39 43.9548 107.39 44.3435V45.6842H109.83V46.1047H107.41V47.7945C107.41 48.1912 107.588 48.3657 107.948 48.3657H110.147Z" fill="#DFE2ED"/>
        <path d="M112.171 48.7901V43.3161C112.607 43.2725 113.217 43.2526 114.001 43.2526C114.472 43.2015 114.945 43.3273 115.329 43.6057C115.574 43.841 115.697 44.2813 115.697 44.9266C115.749 45.3967 115.62 45.8689 115.337 46.2475C114.969 46.5213 114.512 46.6473 114.057 46.6005C113.601 46.6005 113.146 46.5767 112.694 46.537V48.7901H112.171ZM112.694 46.1483H113.993C114.321 46.1776 114.648 46.0859 114.913 45.8905C115.114 45.6122 115.205 45.2683 115.166 44.9266C115.206 44.5811 115.115 44.2332 114.913 43.9508C114.65 43.7515 114.321 43.6606 113.993 43.6969C113.55 43.6969 113.114 43.6969 112.694 43.6969V46.1483Z" fill="#DFE2ED"/>
        <path d="M120.982 48.3657L121.005 48.7624C120.506 48.7941 119.73 48.81 118.668 48.81C118.412 48.8224 118.162 48.7341 117.971 48.564C117.883 48.479 117.815 48.3763 117.769 48.2628C117.724 48.1493 117.704 48.0276 117.709 47.9056V44.2245C117.703 44.1024 117.723 43.9804 117.768 43.8668C117.814 43.7532 117.883 43.6506 117.971 43.566C118.065 43.481 118.175 43.4156 118.295 43.3734C118.414 43.3312 118.541 43.3131 118.668 43.3201C119.73 43.3201 120.506 43.3201 121.005 43.3677L120.982 43.7644H118.763C118.403 43.7644 118.224 43.9548 118.224 44.3435V45.6842H120.665V46.1047H118.208V47.7945C118.208 48.1912 118.387 48.3657 118.747 48.3657H120.982Z" fill="#DFE2ED"/>
        <path d="M125.577 45.9461V45.9778C125.738 45.9765 125.898 46.0114 126.044 46.0801C126.19 46.1487 126.319 46.2493 126.421 46.3745C126.607 46.6891 126.694 47.0527 126.67 47.4177C126.693 47.6232 126.669 47.8311 126.6 48.0261C126.532 48.2211 126.42 48.3982 126.274 48.5443C125.868 48.7817 125.399 48.8871 124.931 48.8457C124.099 48.8457 123.457 48.8219 123.005 48.7823V43.3082C123.567 43.2584 124.13 43.2373 124.693 43.2448C125.181 43.2001 125.671 43.3037 126.1 43.5423C126.248 43.6874 126.361 43.865 126.43 44.0611C126.499 44.2572 126.521 44.4665 126.496 44.6728C126.516 44.9886 126.439 45.303 126.274 45.5732C126.191 45.682 126.086 45.7716 125.966 45.836C125.846 45.9003 125.713 45.9379 125.577 45.9461ZM123.524 45.7636H124.816C125.14 45.789 125.463 45.7142 125.743 45.5494C125.839 45.4428 125.912 45.3169 125.955 45.1801C125.999 45.0433 126.013 44.8988 125.997 44.7561C126.016 44.6055 126.001 44.4525 125.952 44.3088C125.904 44.1651 125.823 44.0345 125.715 43.927C125.402 43.7561 125.045 43.6829 124.689 43.7168C124.107 43.7168 123.719 43.7168 123.524 43.7168V45.7636ZM123.524 46.1603V48.3935C123.968 48.3935 124.42 48.3935 124.879 48.3935C125.224 48.4264 125.57 48.3516 125.87 48.1793C125.974 48.0674 126.051 47.9341 126.098 47.7888C126.144 47.6435 126.159 47.4897 126.139 47.3384C126.161 47.171 126.146 47.001 126.097 46.8396C126.048 46.6782 125.965 46.5291 125.854 46.4022C125.547 46.2023 125.181 46.1103 124.816 46.1404L123.524 46.1603Z" fill="#DFE2ED"/>
        <path d="M129.146 43.8559C129.455 43.4593 130.002 43.2332 130.786 43.2332C131.571 43.2332 132.113 43.4394 132.426 43.8559C132.739 44.2724 132.894 45.0063 132.894 46.0654C132.894 47.1245 132.735 47.8583 132.426 48.2748C132.117 48.6913 131.567 48.8976 130.786 48.8976C130.006 48.8976 129.455 48.6873 129.146 48.2748C128.837 47.8623 128.678 47.1205 128.678 46.0654C128.678 45.0102 128.833 44.2685 129.146 43.8559ZM132.006 44.2129C131.848 44.0487 131.658 43.9181 131.448 43.8289C131.238 43.7397 131.012 43.6937 130.784 43.6937C130.556 43.6937 130.33 43.7397 130.12 43.8289C129.91 43.9181 129.72 44.0487 129.562 44.2129C129.332 44.558 129.217 45.1768 129.217 46.0654C129.217 46.9539 129.332 47.5687 129.562 47.9178C129.72 48.082 129.91 48.2126 130.12 48.3018C130.33 48.391 130.556 48.437 130.784 48.437C131.012 48.437 131.238 48.391 131.448 48.3018C131.658 48.2126 131.848 48.082 132.006 47.9178C132.281 47.3413 132.399 46.7021 132.347 46.0654C132.347 45.1768 132.24 44.558 132.006 44.2129Z" fill="#DFE2ED"/>
        <path d="M139.822 48.3935V50.0198H139.466L139.402 48.8298H135.314L135.258 50.0198H134.894V48.3935H135.405C135.883 47.4256 136.163 46.0611 136.245 44.2999C136.241 44.1702 136.264 44.0411 136.312 43.9205C136.36 43.7998 136.431 43.6901 136.522 43.5978C136.723 43.4213 136.985 43.3315 137.251 43.3479H139.161V48.3935H139.822ZM138.634 48.3935V43.7564H137.326C137.247 43.749 137.167 43.7574 137.091 43.7812C137.014 43.8051 136.944 43.8438 136.883 43.8953C136.775 44.0188 136.721 44.18 136.732 44.3435C136.701 45.1003 136.62 45.8542 136.49 46.6005C136.38 47.2169 136.181 47.814 135.9 48.3736L138.634 48.3935Z" fill="#DFE2ED"/>
        <path d="M142.333 45.6168H143.625C144.109 45.5646 144.595 45.6947 144.988 45.9818C145.235 46.3604 145.366 46.8028 145.366 47.2551C145.366 47.7073 145.235 48.1498 144.988 48.5284C144.61 48.7921 144.151 48.913 143.692 48.8695C142.9 48.8695 142.27 48.8457 141.822 48.8061V43.332H142.337L142.333 45.6168ZM142.333 46.0611V48.3935C142.543 48.3935 142.975 48.3935 143.625 48.3935C143.962 48.4291 144.301 48.3464 144.584 48.1595C144.785 47.8962 144.876 47.5646 144.837 47.2352C144.881 47.0684 144.879 46.8929 144.833 46.7267C144.787 46.5605 144.698 46.4094 144.575 46.2887C144.452 46.1679 144.3 46.0819 144.133 46.0391C143.966 45.9964 143.791 45.9985 143.625 46.0452L142.333 46.0611ZM146.945 43.332V48.7902H146.43V43.3162L146.945 43.332Z" fill="#DFE2ED"/>
        <path d="M156.745 43.3281V48.7902H156.233V43.7565H153.46V48.7902H152.945V43.3162L156.745 43.3281Z" fill="#DFE2ED"/>
        <path d="M159.212 43.8559C159.521 43.4593 160.068 43.2332 160.852 43.2332C161.637 43.2332 162.179 43.4394 162.492 43.8559C162.805 44.2724 162.96 45.0063 162.96 46.0654C162.96 47.1245 162.801 47.8583 162.492 48.2748C162.183 48.6913 161.633 48.8976 160.852 48.8976C160.072 48.8976 159.521 48.6873 159.212 48.2748C158.903 47.8623 158.745 47.1205 158.745 46.0654C158.745 45.0102 158.899 44.2685 159.212 43.8559ZM162.072 44.2129C161.914 44.0487 161.724 43.9181 161.514 43.8289C161.304 43.7397 161.078 43.6937 160.85 43.6937C160.622 43.6937 160.396 43.7397 160.186 43.8289C159.976 43.9181 159.786 44.0487 159.628 44.2129C159.398 44.558 159.283 45.1768 159.283 46.0654C159.283 46.9539 159.398 47.5687 159.628 47.9178C159.786 48.082 159.976 48.2126 160.186 48.3018C160.396 48.391 160.622 48.437 160.85 48.437C161.078 48.437 161.304 48.391 161.514 48.3018C161.724 48.2126 161.914 48.082 162.072 47.9178C162.347 47.3413 162.465 46.7021 162.413 46.0654C162.413 45.1768 162.282 44.558 162.072 44.2129Z" fill="#DFE2ED"/>
        <path d="M169.888 48.3935V50.0198H169.532L169.469 48.8298H165.38L165.324 50.0198H164.96V48.3935H165.467C165.945 47.4256 166.225 46.0611 166.307 44.2999C166.304 44.1702 166.326 44.0411 166.374 43.9205C166.422 43.7998 166.493 43.6901 166.584 43.5978C166.785 43.4213 167.047 43.3315 167.313 43.3479H169.223V48.3935H169.888ZM168.7 48.3935V43.7564H167.393C167.312 43.7429 167.23 43.7487 167.152 43.7733C167.074 43.7979 167.004 43.8406 166.946 43.8979C166.888 43.9552 166.844 44.0255 166.818 44.1029C166.793 44.1804 166.786 44.2628 166.798 44.3435C166.768 45.1005 166.685 45.8546 166.553 46.6005C166.445 47.2171 166.247 47.8146 165.966 48.3736L168.7 48.3935Z" fill="#DFE2ED"/>
        <path d="M178.46 45.9461V45.9779C178.621 45.9765 178.781 46.0115 178.927 46.0801C179.073 46.1488 179.202 46.2494 179.304 46.3746C179.49 46.6892 179.577 47.0528 179.553 47.4178C179.576 47.6233 179.552 47.8312 179.483 48.0262C179.415 48.2212 179.303 48.3982 179.157 48.5443C178.751 48.7818 178.282 48.8871 177.814 48.8458C176.982 48.8458 176.34 48.822 175.888 48.7823V43.3083C176.45 43.2585 177.013 43.2373 177.576 43.2448C178.063 43.1999 178.552 43.3037 178.979 43.5423C179.128 43.6869 179.242 43.8644 179.31 44.0607C179.379 44.2569 179.401 44.4665 179.375 44.6728C179.395 44.9887 179.318 45.3031 179.153 45.5733C179.071 45.6816 178.967 45.7709 178.847 45.8353C178.727 45.8996 178.595 45.9374 178.46 45.9461ZM176.407 45.7637H177.695C178.019 45.789 178.342 45.7143 178.622 45.5495C178.718 45.4425 178.789 45.3165 178.832 45.1797C178.875 45.0429 178.889 44.8985 178.872 44.7561C178.892 44.6056 178.878 44.4523 178.829 44.3084C178.78 44.1645 178.698 44.034 178.59 43.9271C178.279 43.7556 177.922 43.6823 177.568 43.7169C176.986 43.7169 176.598 43.7169 176.404 43.7169L176.407 45.7637ZM176.407 46.1604V48.3936C176.847 48.3936 177.303 48.3936 177.762 48.3936C178.107 48.4265 178.453 48.3517 178.753 48.1794C178.857 48.0675 178.934 47.9342 178.981 47.7889C179.027 47.6436 179.042 47.4898 179.022 47.3385C179.042 47.1711 179.027 47.0016 178.978 46.8404C178.929 46.6793 178.847 46.5301 178.737 46.4023C178.43 46.2024 178.064 46.1103 177.699 46.1405L176.407 46.1604Z" fill="#DFE2ED"/>
        <path d="M185.087 46.9936H182.71L182.1 48.7905H181.561L183.392 43.4672C183.402 43.4221 183.428 43.3822 183.465 43.3545C183.502 43.3269 183.548 43.3134 183.594 43.3164H184.188C184.235 43.3123 184.283 43.3252 184.321 43.3528C184.36 43.3805 184.387 43.4211 184.398 43.4672L186.229 48.7905H185.69L185.087 46.9936ZM184.933 46.5414L184.141 44.1852C184.141 44.1574 184.113 44.09 184.077 43.9829C184.042 43.8758 184.01 43.7924 183.994 43.7409H183.776L183.626 44.1852L182.833 46.5414H184.933Z" fill="#DFE2ED"/>
        <path d="M194.049 43.3281V48.7902H188.228V43.3162H188.736V48.3935H190.879V43.3281H191.382V48.3935H193.526V43.3281H194.049Z" fill="#DFE2ED"/>
        <path d="M200.528 45.7478H201.835C202.316 45.6961 202.798 45.8201 203.194 46.0969C203.342 46.2616 203.453 46.4554 203.521 46.6658C203.59 46.8762 203.613 47.0986 203.59 47.3186C203.599 47.5868 203.564 47.8547 203.487 48.1119C203.43 48.304 203.308 48.4705 203.143 48.584C202.976 48.6932 202.788 48.7675 202.592 48.8021C202.322 48.8433 202.049 48.8618 201.776 48.8577C201.079 48.8577 200.504 48.8339 200.048 48.7942V43.3202C200.659 43.2924 201.209 43.2805 201.705 43.2805C202.2 43.2805 202.723 43.2805 203.317 43.3202L203.273 43.7486H200.528V45.7478ZM200.528 46.1683V48.3936C200.952 48.3936 201.384 48.3936 201.827 48.3936C202.163 48.4291 202.5 48.3509 202.786 48.1714C202.886 48.0468 202.961 47.9031 203.004 47.7491C203.048 47.595 203.06 47.4338 203.04 47.275C203.078 46.9568 202.989 46.6364 202.794 46.3825C202.513 46.1854 202.168 46.0992 201.827 46.1405L200.528 46.1683Z" fill="#DFE2ED"/>
        <path d="M206.114 45.7399H207.445C207.471 44.8064 207.637 44.1558 207.94 43.7883C208.136 43.5867 208.374 43.4321 208.637 43.3359C208.901 43.2398 209.183 43.2045 209.462 43.2329C210.254 43.2329 210.789 43.4392 211.102 43.8557C211.415 44.2722 211.573 45.006 211.573 46.0651C211.573 47.1242 211.419 47.8581 211.102 48.2746C210.785 48.6911 210.242 48.8973 209.462 48.8973C208.681 48.8973 208.206 48.695 207.909 48.2944C207.611 47.8938 207.453 47.1837 207.445 46.1683H206.114V48.7902H205.599V43.3162H206.114V45.7399ZM209.462 48.4372C209.692 48.4621 209.926 48.4275 210.139 48.3365C210.353 48.2456 210.54 48.1013 210.682 47.9176C210.956 47.3407 211.077 46.7024 211.031 46.0651C211.031 45.1766 210.908 44.5578 210.682 44.2127C210.54 44.0284 210.354 43.8837 210.14 43.7927C209.926 43.7016 209.692 43.6673 209.462 43.6931C209.235 43.6654 209.006 43.699 208.796 43.7904C208.587 43.8818 208.407 44.0276 208.273 44.2127C208.007 44.7918 207.894 45.4296 207.944 46.0651C207.894 46.7006 208.007 47.3383 208.273 47.9176C208.407 48.102 208.588 48.2474 208.797 48.3387C209.006 48.43 209.235 48.464 209.462 48.4372Z" fill="#DFE2ED"/>
        <path d="M218.502 48.3934V50.0198H218.145L218.082 48.8298H213.997L213.938 50.0198H213.573V48.3934H214.08C214.564 47.4256 214.844 46.061 214.92 44.2998C214.918 44.1699 214.941 44.0407 214.99 43.9201C215.038 43.7995 215.11 43.6898 215.202 43.5977C215.401 43.4215 215.661 43.3316 215.927 43.3478H217.84V48.3934H218.502ZM217.313 48.3934V43.7564H216.006C215.845 43.7422 215.686 43.7921 215.562 43.8952C215.457 44.0198 215.403 44.1803 215.412 44.3434C215.384 45.1005 215.303 45.8548 215.17 46.6005C215.061 47.2166 214.863 47.8138 214.584 48.3736L217.313 48.3934Z" fill="#DFE2ED"/>
        <path d="M225.09 45.9383C225.271 45.9522 225.445 46.0123 225.597 46.1128C225.743 46.1979 225.877 46.3034 225.993 46.4262C226.137 46.5966 226.255 46.7878 226.342 46.9934C226.472 47.2631 226.568 47.4734 226.627 47.6281C226.686 47.7828 226.789 48.0525 226.932 48.4452C226.991 48.592 227.035 48.707 227.059 48.7863H226.504C226.468 48.6951 226.421 48.5642 226.358 48.3897C226.258 48.1398 226.191 47.9533 226.144 47.8343C226.096 47.7153 226.037 47.5527 225.953 47.3623C225.891 47.2145 225.818 47.0714 225.736 46.9339C225.668 46.8224 225.594 46.7151 225.514 46.6126C225.444 46.508 225.354 46.4188 225.248 46.3508C225.154 46.2907 225.053 46.2427 224.947 46.208C224.829 46.1638 224.704 46.1423 224.579 46.1445H224.012C224.042 46.3494 224.056 46.5563 224.056 46.7633V48.7903H223.549V46.7673C223.549 46.6404 223.549 46.4341 223.596 46.1485H222.982C222.81 46.146 222.639 46.1869 222.487 46.2675C222.349 46.336 222.223 46.4242 222.11 46.5293C221.978 46.6771 221.868 46.8443 221.786 47.0251C221.663 47.2592 221.572 47.4496 221.508 47.6003C221.445 47.751 221.35 47.997 221.211 48.3619L221.045 48.7903H220.502C220.847 47.8423 221.084 47.2512 221.203 47.0132C221.292 46.7854 221.426 46.5776 221.596 46.4019C221.766 46.2262 221.969 46.0861 222.194 45.9898C222.278 45.9625 222.366 45.9465 222.455 45.9422C222.283 45.9242 222.119 45.8643 221.976 45.7677C221.829 45.6744 221.695 45.5609 221.58 45.4305C221.454 45.263 221.345 45.0836 221.255 44.895C221.144 44.661 221.053 44.4587 220.985 44.2881C220.918 44.1176 220.823 43.8914 220.716 43.5701C220.676 43.463 220.648 43.3837 220.625 43.3321H221.156C221.35 43.8751 221.579 44.4051 221.841 44.9188C222.15 45.4477 222.522 45.7122 222.958 45.7122H223.572C223.548 45.5014 223.535 45.2896 223.533 45.0775V43.3083H224.032V45.0775C224.035 45.2897 224.022 45.5019 223.992 45.7122H224.555C224.759 45.7136 224.959 45.6542 225.129 45.5416C225.316 45.412 225.472 45.2427 225.585 45.0458C225.72 44.8259 225.839 44.5966 225.942 44.3595C226.049 44.1176 226.167 43.832 226.294 43.5067C226.326 43.4154 226.346 43.348 226.365 43.3083H226.896C226.575 44.1572 226.35 44.7126 226.211 44.9744C225.914 45.5813 225.53 45.8946 225.09 45.9383Z" fill="#DFE2ED"/>
        <path d="M232.332 48.3656L232.356 48.7623C231.862 48.794 231.083 48.8099 230.019 48.8099C229.763 48.8215 229.513 48.7333 229.321 48.5639C229.234 48.4789 229.165 48.3763 229.12 48.2628C229.075 48.1493 229.055 48.0275 229.06 47.9055V44.2244C229.054 44.1023 229.074 43.9803 229.119 43.8667C229.164 43.7531 229.233 43.6505 229.321 43.5659C229.512 43.3947 229.763 43.3062 230.019 43.32C231.075 43.32 231.854 43.3359 232.356 43.3676L232.332 43.7643H230.114C229.757 43.7643 229.575 43.9547 229.575 44.3434V45.6841H232.015V46.1046H229.575V47.7944C229.575 48.1911 229.757 48.3656 230.114 48.3656H232.332Z" fill="#DFE2ED"/>
        <path d="M238.516 43.7885H236.694V48.7905H236.171V43.7885H234.356V43.3284H238.516V43.7885Z" fill="#DFE2ED"/>
        <path d="M248.486 48.7902H247.979V44.5895C247.979 44.3911 247.979 44.1928 248.003 43.9865H247.979C247.852 44.2444 247.757 44.4308 247.694 44.5419L245.039 48.7902H244.516V43.3162H245.015V47.497C245.015 47.7033 245.007 47.9096 244.992 48.1159H245.015C245.087 47.9783 245.19 47.7879 245.324 47.5446L247.955 43.3162H248.486V48.7902Z" fill="#DFE2ED"/>
        <path d="M258.099 48.3421L258.163 48.7387C257.644 48.8626 257.111 48.9186 256.578 48.9053C255.809 48.9053 255.266 48.6911 254.953 48.2707C254.64 47.8502 254.486 47.1124 254.486 46.0731C254.486 45.0339 254.644 44.2961 254.953 43.8756C255.262 43.4551 255.809 43.2409 256.578 43.2409C257.068 43.2302 257.558 43.2808 258.036 43.3916L257.972 43.7883C257.509 43.7373 257.044 43.7135 256.578 43.7169C256.349 43.6918 256.117 43.726 255.904 43.8163C255.692 43.9066 255.507 44.0499 255.365 44.2326C255.14 44.5737 255.025 45.1925 255.025 46.0811C255.025 46.9696 255.14 47.5844 255.365 47.9295C255.507 48.1116 255.693 48.2545 255.905 48.3448C256.117 48.435 256.349 48.4696 256.578 48.4452C257.087 48.4454 257.595 48.411 258.099 48.3421Z" fill="#DFE2ED"/>
        <path d="M260.163 48.7903V43.3162C260.602 43.2726 261.212 43.2528 261.993 43.2528C262.464 43.2012 262.937 43.3271 263.32 43.6058C263.566 43.8412 263.689 44.2815 263.689 44.9267C263.742 45.397 263.613 45.8698 263.328 46.2476C262.961 46.5225 262.504 46.6486 262.048 46.6006C261.597 46.6006 261.141 46.5768 260.686 46.5372V48.7903H260.163ZM260.686 46.1484H261.985C262.313 46.1785 262.64 46.0867 262.904 45.8906C263.108 45.6132 263.198 45.2686 263.158 44.9267C263.199 44.5811 263.109 44.2325 262.904 43.9509C262.642 43.7513 262.313 43.6604 261.985 43.697C261.541 43.697 261.109 43.697 260.686 43.697V46.1484Z" fill="#DFE2ED"/>
        <path d="M266.168 43.8559C266.481 43.4593 267.028 43.2332 267.808 43.2332C268.589 43.2332 269.139 43.4394 269.448 43.8559C269.757 44.2724 269.916 45.0063 269.916 46.0654C269.916 47.1245 269.761 47.8583 269.448 48.2748C269.135 48.6913 268.593 48.8976 267.808 48.8976C267.024 48.8976 266.481 48.6873 266.168 48.2748C265.855 47.8623 265.7 47.1205 265.7 46.0654C265.7 45.0102 265.859 44.2685 266.168 43.8559ZM269.028 44.2129C268.87 44.0487 268.68 43.9181 268.47 43.8289C268.26 43.7397 268.034 43.6937 267.806 43.6937C267.578 43.6937 267.352 43.7397 267.142 43.8289C266.932 43.9181 266.742 44.0487 266.584 44.2129C266.354 44.558 266.239 45.1768 266.239 46.0654C266.239 46.9539 266.354 47.5687 266.584 47.9178C266.742 48.082 266.932 48.2126 267.142 48.3018C267.352 48.391 267.578 48.437 267.806 48.437C268.034 48.437 268.26 48.391 268.47 48.3018C268.68 48.2126 268.87 48.082 269.028 47.9178C269.258 47.5687 269.369 46.9539 269.369 46.0654C269.369 45.1768 269.258 44.558 269.028 44.2129Z" fill="#DFE2ED"/>
        <path d="M273.604 45.9381C273.909 45.9632 274.193 46.1053 274.396 46.3348C274.609 46.5503 274.784 46.8013 274.911 47.0766C275.026 47.3265 275.192 47.747 275.414 48.342C275.489 48.5324 275.545 48.6752 275.581 48.7783H275.034C274.698 47.8898 274.484 47.3609 274.392 47.1916C274.232 46.7648 273.914 46.4156 273.505 46.2158C273.365 46.1667 273.217 46.1426 273.069 46.1444H272.383C272.414 46.3492 272.43 46.5561 272.431 46.7632V48.7902H271.916V43.3162H272.431V45.0853C272.431 45.2978 272.415 45.5099 272.383 45.72H273.065C273.21 45.7209 273.353 45.6954 273.489 45.6446C273.624 45.5909 273.745 45.5083 273.845 45.4026C273.949 45.2996 274.045 45.1882 274.131 45.0694C274.233 44.9241 274.321 44.7686 274.392 44.6053C274.487 44.407 274.558 44.2364 274.614 44.0936L274.84 43.5066L274.911 43.3162H275.434C275.235 43.8827 275.008 44.4388 274.753 44.9822C274.428 45.5811 274.047 45.8945 273.604 45.9381Z" fill="#DFE2ED"/>
        <path d="M281.55 48.7902H281.043V44.5895C281.043 44.3911 281.043 44.1928 281.067 43.9865H281.043C280.917 44.2444 280.821 44.4308 280.758 44.5419L278.104 48.7902H277.581V43.3162H278.08V47.497C278.08 47.7033 278.072 47.9096 278.056 48.1159H278.08C278.151 47.9783 278.254 47.7879 278.389 47.5446L281.02 43.3162H281.55V48.7902Z" fill="#DFE2ED"/>
    </g>
    <defs>
        <clipPath id="clip0_0_499">
            <rect width="296" height="50" fill="white"/>
        </clipPath>
    </defs>
</svg>