<svg width="176" height="20" viewBox="0 0 176 20" fill="none" xmlns="http://www.w3.org/2000/svg">
    <path d="M0 15.0972L2.35614 14.2854C2.58074 15.2138 3.08739 16.0499 3.80646 16.6787C4.50666 17.2397 5.38471 17.5312 6.2814 17.5004C6.69818 17.5212 7.11481 17.4564 7.50557 17.31C7.89634 17.1635 8.25295 16.9386 8.5534 16.649C8.84073 16.343 9.06301 15.9819 9.2068 15.5876C9.35058 15.1932 9.41288 14.7738 9.38993 14.3547C9.41732 13.6564 9.17037 12.975 8.70189 12.4564C8.24155 11.9614 7.22188 11.3897 5.64287 10.7413C3.81471 9.99386 2.52609 9.1928 1.77701 8.33812C1.01618 7.45295 0.615205 6.31451 0.653385 5.14792C0.631198 4.46234 0.751744 3.77964 1.00738 3.14312C1.26301 2.5066 1.64814 1.93015 2.13835 1.45036C3.13823 0.483482 4.42354 4.39516e-05 5.99431 4.39516e-05C7.0124 -0.0136243 8.01673 0.236179 8.90979 0.725202C9.85709 1.2753 10.6723 2.02633 11.2981 2.92542L9.4716 4.72471C9.01489 4.05819 8.44237 3.47897 7.78122 3.01452C7.25728 2.65604 6.639 2.46057 6.00421 2.45271C5.30857 2.42268 4.6283 2.66304 4.10593 3.12342C3.86675 3.34557 3.67819 3.6166 3.55306 3.9181C3.42794 4.2196 3.36918 4.5445 3.38077 4.87073C3.36902 5.40448 3.53534 5.92695 3.85348 6.35569C4.26189 6.8493 4.77847 7.24225 5.3632 7.50406C5.98523 7.81096 6.71864 8.14095 7.56342 8.49404C8.08808 8.69562 8.60045 8.92784 9.09788 9.1895C10.2413 9.92868 11.0308 10.6761 11.4664 11.4318C11.902 12.1875 12.1198 13.1478 12.1198 14.3126C12.1198 15.989 11.5836 17.3568 10.5111 18.4161C9.4386 19.4754 8.05263 20.005 6.35317 20.005C4.70321 20.005 3.31972 19.5702 2.2027 18.7007C1.05867 17.8038 0.276576 16.5243 0 15.0972H0Z" fill="white"/>
    <path d="M15.8668 19.6017V5.52173H18.5621V19.6017H15.8668Z" fill="white"/>
    <path d="M30.8155 19.6015V10.5382C30.8155 9.41709 30.6398 8.59541 30.2908 8.0633C29.9418 7.53118 29.3899 7.27131 28.64 7.27131C27.65 7.27131 26.8523 7.7432 26.2468 8.68698C25.6412 9.63076 25.3393 10.8996 25.3409 12.4934V19.6015H22.6457V5.05129H25.0885C25.0712 5.70468 25.0365 6.34569 24.9845 6.97927C24.9326 7.61286 24.8707 8.22912 24.7989 8.833C25.2411 7.52953 25.8574 6.53956 26.6477 5.86307C27.425 5.18988 28.4237 4.82762 29.4518 4.84587C30.7586 4.84587 31.7617 5.28476 32.4613 6.16254C33.1609 7.04032 33.5115 8.29347 33.5132 9.92198V19.6015H30.8155Z" fill="white"/>
    <path d="M42.3933 19.9999C40.5569 19.9999 39.0966 19.3094 38.0126 17.9284C36.9286 16.5474 36.3849 14.6796 36.3816 12.3252C36.3816 9.97396 36.9237 8.10703 38.0077 6.72436C39.0917 5.34169 40.5519 4.65119 42.3883 4.65283C44.233 4.65283 45.7014 5.34582 46.7937 6.73179C47.886 8.11775 48.4313 9.98221 48.4296 12.3252C48.4296 14.6714 47.8843 16.5367 46.7937 17.921C45.7031 19.3053 44.2363 19.9983 42.3933 19.9999ZM42.3933 17.5943C43.3832 17.5943 44.1727 17.1191 44.7618 16.1687C45.3508 15.2184 45.6445 13.9297 45.6429 12.3029C45.6429 10.6925 45.3492 9.4072 44.7618 8.44692C44.1744 7.48664 43.3931 7.00733 42.418 7.00898C41.428 7.00898 40.646 7.48252 40.0718 8.4296C39.4976 9.37667 39.208 10.6678 39.2031 12.3029C39.2031 13.9215 39.4926 15.2085 40.0718 16.1638C40.6509 17.1191 41.4247 17.596 42.3933 17.5943Z" fill="white"/>
    <path d="M56.9572 2.94778V19.6017H54.215V2.94778H48.1241V0.42334H63.0208V2.94778H56.9572Z" fill="white"/>
    <path d="M64.1716 19.6016V5.05147H66.7703C66.7703 5.59843 66.7381 6.18004 66.6985 6.78393C66.6589 7.38781 66.602 8.07832 66.5302 8.82575C67.0137 7.46454 67.5689 6.45971 68.1959 5.81128C68.4731 5.50619 68.8108 5.26216 69.1874 5.09471C69.5641 4.92725 69.9715 4.84004 70.3837 4.83862C70.6013 4.84081 70.818 4.86738 71.0297 4.91782C71.3068 4.98346 71.5795 5.06612 71.8464 5.16532L71.2302 8.18722C71.0171 8.07737 70.7942 7.98788 70.5644 7.91993C70.368 7.86392 70.1647 7.8356 69.9605 7.83578C69.0184 7.83578 68.2677 8.30272 67.7083 9.23659C67.149 10.1705 66.8685 11.436 66.8668 13.0332V19.6016H64.1716Z" fill="white"/>
    <path d="M81.2363 19.6016C81.2611 19.0447 81.2982 18.5027 81.3502 17.9706C81.4022 17.4385 81.469 16.9113 81.5507 16.3867C81.2135 17.4151 80.6168 18.3391 79.8182 19.0695C79.1274 19.6776 78.2363 20.009 77.316 20.0001C75.7304 20.0001 74.4558 19.3153 73.4922 17.9459C72.5287 16.5764 72.0469 14.7515 72.0469 12.4713C72.0469 10.1993 72.532 8.37444 73.5021 6.99672C74.4723 5.61901 75.7436 4.93015 77.316 4.93015C78.1686 4.9172 79.0029 5.17738 79.6969 5.67263C80.4329 6.22487 81.0051 6.96649 81.3527 7.8184C81.2454 7.36786 81.1627 6.91179 81.1052 6.45224C81.0482 5.99437 81.0136 5.52661 80.9963 5.05142H83.6915V19.6016H81.2363ZM77.9125 17.6439C78.8728 17.6439 79.64 17.1885 80.2142 16.2778C80.7884 15.367 81.0796 14.1386 81.0878 12.5926C81.0878 11.0598 80.8032 9.84126 80.234 8.93708C79.6647 8.0329 78.9099 7.57999 77.9694 7.57834C77.0091 7.57834 76.2419 8.02878 75.6677 8.92965C75.0935 9.83053 74.8048 11.0515 74.8015 12.5926C74.8015 14.1402 75.0878 15.3686 75.6603 16.2778C76.2328 17.1869 76.9836 17.6423 77.9125 17.6439Z" fill="white"/>
    <path d="M96.0043 19.6014V10.5382C96.0043 9.41707 95.8286 8.59539 95.4771 8.06328C95.1257 7.53117 94.5787 7.2713 93.8288 7.2713C92.8389 7.2713 92.0411 7.74319 91.4356 8.68696C90.83 9.63074 90.5281 10.8996 90.5297 12.4934V19.6014H87.8345V5.05128H90.2748C90.26 5.70466 90.2253 6.34567 90.1733 6.97925C90.1214 7.61284 90.057 8.2291 89.9853 8.83298C90.4291 7.52952 91.0454 6.53954 91.834 5.86306C92.612 5.19117 93.6104 4.82987 94.6381 4.84833C95.9416 4.84833 96.9448 5.28722 97.6477 6.165C98.3505 7.04278 98.7012 8.29592 98.6995 9.92443V19.6014H96.0043Z" fill="white"/>
    <path d="M109.817 8.76145C109.395 8.18629 108.868 7.69663 108.263 7.31856C107.742 7.00956 107.148 6.84867 106.543 6.85327C105.987 6.83304 105.441 7.00817 105.001 7.34826C104.808 7.49135 104.652 7.67817 104.546 7.89331C104.44 8.10846 104.386 8.34578 104.389 8.58573C104.386 8.77559 104.421 8.96417 104.493 9.13993C104.565 9.31568 104.672 9.47491 104.808 9.60788C105.203 9.95506 105.672 10.2088 106.179 10.3504L106.627 10.4964C108.221 11.0178 109.231 11.3964 109.659 11.6324C110.619 12.162 111.288 12.7156 111.666 13.2931C112.066 13.9481 112.263 14.7067 112.232 15.4735C112.232 16.8446 111.767 17.9468 110.837 18.78C109.906 19.6132 108.664 20.0257 107.109 20.0175C106.025 20.0429 104.951 19.8091 103.976 19.3356C103 18.862 102.152 18.1625 101.501 17.295L103.375 15.6393C103.82 16.2807 104.403 16.8149 105.08 17.2035C105.719 17.5606 106.439 17.7457 107.171 17.7405C107.846 17.7611 108.508 17.5574 109.055 17.1614C109.288 16.9991 109.478 16.7819 109.607 16.529C109.737 16.2761 109.802 15.9952 109.797 15.7111C109.801 15.4841 109.757 15.2589 109.669 15.0497C109.58 14.8405 109.45 14.6519 109.285 14.4959C108.802 14.0863 108.238 13.785 107.629 13.6123C107.322 13.5084 106.892 13.3673 106.337 13.1891C105.144 12.803 104.391 12.5093 104.078 12.308C103.429 11.944 102.873 11.4359 102.452 10.8231C102.11 10.2543 101.939 9.6001 101.957 8.93717C101.941 8.3613 102.05 7.78887 102.277 7.25915C102.503 6.72942 102.841 6.25494 103.268 5.86824C104.143 5.06471 105.256 4.66212 106.609 4.66047C107.604 4.64471 108.589 4.86167 109.485 5.29405C110.353 5.72921 111.1 6.37089 111.661 7.16264L109.817 8.76145Z" fill="white"/>
    <path d="M115.254 19.6016V0.121338H117.95V19.6016H115.254Z" fill="white"/>
    <path d="M130.01 19.6016C130.035 19.0447 130.072 18.5027 130.124 17.9706C130.176 17.4385 130.243 16.9113 130.324 16.3867C129.987 17.4151 129.391 18.3391 128.592 19.0695C127.901 19.6776 127.01 20.009 126.09 20.0001C124.504 20.0001 123.23 19.3153 122.266 17.9459C121.302 16.5764 120.821 14.7515 120.821 12.4713C120.821 10.1993 121.306 8.37444 122.276 6.99672C123.246 5.61901 124.517 4.93015 126.09 4.93015C126.942 4.9172 127.777 5.17738 128.471 5.67263C129.207 6.22487 129.779 6.96649 130.126 7.8184C130.019 7.36786 129.936 6.91179 129.879 6.45224C129.822 5.99437 129.787 5.52661 129.77 5.05142H132.465V19.6016H130.01ZM126.686 17.6439C127.646 17.6439 128.414 17.1885 128.988 16.2778C129.562 15.367 129.847 14.1386 129.844 12.5926C129.844 11.0598 129.56 9.84126 128.99 8.93708C128.421 8.0329 127.666 7.57999 126.726 7.57834C125.765 7.57834 124.998 8.02878 124.424 8.92965C123.85 9.83053 123.562 11.0515 123.56 12.5926C123.56 14.1402 123.846 15.3686 124.417 16.2778C124.988 17.1869 125.744 17.6423 126.686 17.6439Z" fill="white"/>
    <path d="M139.848 0.42334V5.05148H142.531V7.10568H139.848V19.6017H137.153V7.10568H134.458V5.05148H137.153V0.42334H139.848Z" fill="white"/>
    <path d="M147.896 1.88585C147.903 2.12926 147.854 2.37094 147.753 2.59261C147.652 2.81429 147.502 3.01015 147.315 3.16539C146.89 3.51036 146.352 3.68657 145.805 3.66038C145.266 3.68369 144.737 3.50746 144.32 3.16539C144.135 3.00743 143.988 2.80964 143.889 2.58678C143.791 2.36393 143.745 2.12178 143.753 1.87842C143.744 1.63614 143.789 1.39486 143.887 1.17278C143.984 0.950697 144.131 0.753617 144.315 0.596405C144.735 0.260013 145.263 0.0883997 145.8 0.113791C146.349 0.0908106 146.888 0.266562 147.317 0.60878C147.505 0.763525 147.654 0.959005 147.755 1.18032C147.855 1.40164 147.903 1.64294 147.896 1.88585ZM144.476 19.6015V5.52154H147.169V19.6015H144.476Z" fill="white"/>
    <path d="M156.054 19.9999C154.216 19.9999 152.755 19.3094 151.671 17.9284C150.587 16.5474 150.045 14.6796 150.047 12.3252C150.047 9.97396 150.588 8.10703 151.671 6.72436C152.753 5.34169 154.214 4.65119 156.054 4.65283C157.898 4.65283 159.366 5.34582 160.457 6.73179C161.547 8.11775 162.093 9.98221 162.095 12.3252C162.095 14.6714 161.549 16.5367 160.457 17.921C159.364 19.3053 157.897 19.9983 156.054 19.9999ZM156.054 17.5943C157.044 17.5943 157.833 17.1191 158.422 16.1687C159.011 15.2184 159.303 13.9297 159.296 12.3029C159.296 10.6925 159.002 9.4072 158.415 8.44692C157.828 7.48664 157.049 7.00733 156.079 7.00898C155.089 7.00898 154.307 7.48252 153.735 8.4296C153.162 9.37667 152.871 10.6678 152.861 12.3029C152.861 13.9215 153.152 15.2085 153.732 16.1638C154.313 17.1191 155.087 17.596 156.054 17.5943Z" fill="white"/>
    <path d="M173.213 19.6015V10.5382C173.213 9.4171 173.037 8.59542 172.688 8.0633C172.339 7.53119 171.787 7.27132 171.037 7.27132C170.047 7.27132 169.249 7.74321 168.644 8.68699C168.038 9.63076 167.736 10.8996 167.738 12.4934V19.6015H165.043V5.0513H167.486C167.468 5.70468 167.434 6.34569 167.382 6.97928C167.33 7.61286 167.268 8.22912 167.194 8.83301C167.637 7.52954 168.255 6.53956 169.045 5.86308C169.822 5.19095 170.819 4.82956 171.846 4.84835C173.153 4.84835 174.156 5.28724 174.856 6.16502C175.556 7.0428 175.906 8.29595 175.908 9.92446V19.6015H173.213Z" fill="white"/>
    <path d="M18.8417 2.42305C18.1356 2.7237 17.5733 3.28603 17.2726 3.99216C17.2639 4.01605 17.2481 4.03669 17.2273 4.05128C17.2065 4.06586 17.1817 4.07369 17.1563 4.07369C17.1309 4.07369 17.1061 4.06586 17.0853 4.05128C17.0645 4.03669 17.0486 4.01605 17.04 3.99216C16.7393 3.28603 16.177 2.7237 15.4709 2.42305C15.447 2.41438 15.4263 2.39856 15.4117 2.37775C15.3972 2.35694 15.3893 2.33214 15.3893 2.30672C15.3893 2.28131 15.3972 2.25651 15.4117 2.2357C15.4263 2.21489 15.447 2.19907 15.4709 2.1904C16.1765 1.89034 16.7388 1.32896 17.04 0.623764C17.0486 0.599875 17.0645 0.579234 17.0853 0.564648C17.1061 0.550061 17.1309 0.542236 17.1563 0.542236C17.1817 0.542236 17.2065 0.550061 17.2273 0.564648C17.2481 0.579234 17.2639 0.599875 17.2726 0.623764C17.5725 1.32985 18.1352 1.89165 18.8417 2.1904C18.8656 2.19907 18.8863 2.21489 18.9008 2.2357C18.9154 2.25651 18.9233 2.28131 18.9233 2.30672C18.9233 2.33214 18.9154 2.35694 18.9008 2.37775C18.8863 2.39856 18.8656 2.41438 18.8417 2.42305Z" fill="white"/>
</svg>